<svg version="1.1" id="Layer_1" xmlns="http://www.w3.org/2000/svg" xmlns:xlink="http://www.w3.org/1999/xlink" x="0px" y="0px"
	 width="100%" height="100%" viewBox="0 0 1278 500" enable-background="new 0 0 1278 500" xml:space="preserve">
<g>
	<path fill="#EFEFEF" d="M953.881,1c107.319,0,214.64,0.021,321.959-0.095c3.424-0.004,4.097,0.671,4.095,4.095
		c-0.108,164.312-0.108,328.625,0,492.938c0.002,3.423-0.671,4.095-4.095,4.094c-423.612-0.099-847.227-0.099-1270.84,0
		c-3.422,0.001-4.097-0.669-4.095-4.094C1.014,333.625,1.014,169.313,0.905,5C0.903,1.578,1.575,0.901,4.999,0.905
		C118.984,1.02,232.971,1,346.957,1c-0.551,1.019-0.949,2.165-1.675,3.037c-10.806,12.968-20.257,26.893-29.111,41.232
		c-3.808,6.167-7.744,12.283-10.32,19.123c-0.697-0.451-1.434-0.853-2.088-1.36c-47.927-37.16-99.837-38.628-152.911-14.359
		C94.547,74.42,63.343,136.5,72.805,198.819c10.518,69.273,70.25,121.38,139.721,122.092c16.811,0.173,33.135-2.415,49.204-7.085
		c2.492,0.436,2.904,2.342,3.242,4.41c1.763,10.798,4.198,21.435,6.96,32.031c7.24,27.775,17.799,54.263,30.827,79.746
		c11.131,21.772,24.771,41.996,39.428,61.576c4.948,6.609,10.126,9.626,18.936,9.588c92.814-0.404,185.63-0.246,278.446-0.277
		c1.729-0.001,3.555,0.515,6.363-1.088c-14.124,0.733-26.744-1.612-39.501-3.656c-35.06-5.618-66.92-18.99-96.561-37.988
		c-15.538-9.959-28.941-22.529-42.016-35.576c-18.362-18.324-31.742-39.959-43.78-62.554c-8.638-16.214-13.944-33.731-18.012-51.581
		c-4.038-17.718-8.196-35.431-7.18-53.872c0.419-7.616-0.399-15.312,0.208-22.902c0.578-7.221,1.033-14.526,2.885-21.607
		c8.788-0.72,17.565-1.65,26.367-2.121c30.924-1.656,61.846-3.438,92.79-4.644c42.436-1.653,87.544-3.587,130.016-4.08
		c2.044,1.426,0.799,4.063,0.811,5.978c0.069,10.88-3.028,9.749,8,9.758c24.976,0.02,49.953,0.083,74.929-0.073
		c3.896-0.024,5.244,1.022,5.115,5.044c-0.283,8.815-0.067,17.647-0.106,26.472c-0.007,1.601,0.09,1.495,0.042,17.965
		c-89.92-0.622-0.756,1.75-89.92-0.622c-0.031,10.163,0.175,25.336-0.199,35.487c-0.173,4.677,1.335,5.85,5.887,5.82
		c30.325-0.19,60.653-0.021,90.979-0.188c4.193-0.022,5.382,1.237,5.31,5.363c-0.235,13.492-0.242,26.996,0.002,40.488
		c0.076,4.187-1.223,5.34-5.354,5.317c-29.993-0.16-59.987-0.089-89.981-0.084c-6.717,0.001-6.731,0.014-6.733,6.606
		c-0.017,45.158,0.016,90.315-0.142,135.473c-0.009,2.744,0.873,2.96,3.001,2.914c5.894-0.127,11.803-1.386,17.495-1.601
		c13.699-0.516,26.839-2.711,40.026-6.271c11.07-2.989,22.154-5.993,32.688-10.348c22.304-9.221,43.099-21.104,62.151-36.173
		c16.933-13.393,32.027-28.513,44.662-45.834c15.191-20.829,28.028-43.124,35.936-67.892c2.16-6.764,12.902-52.881,13.145-61.333
		c2.043-1.048,0.661-52.477-4.56-70.618c-0.842-2.926-4.586-4.869-1.062-5.161c2.961,0.146,8.355-0.93,8.672-4.274
		c0.894-9.473,0.935-18.876-0.143-28.334c-0.314-2.762-1.279-3.792-3.968-3.788c-5.312,0.008-10.624-0.165-15.937-0.262
		c-1.127-7.37-4.576-13.958-8.245-20.134c-8-13.464-14.851-27.604-24.932-39.891c-6.187-7.541-12.069-15.405-18.847-22.374
		c-14.792-15.212-31.039-28.765-49.521-39.39c-11.779-6.771-23.436-13.758-36.178-18.733c-19.309-7.54-39.457-11.915-59.585-16.426
		c-1.882-0.421-4.055,0.647-5.67-1.114c80.323,0,160.646,0,240.97,0c5.404,6.268,11.104,12.309,16.163,18.844
		c19.862,25.652,36.89,53.018,49.771,82.902c11.641,27.011,20.135,54.911,25.223,83.891c4.02,22.887,5.577,45.947,5.814,69.135
		c0.645,10.478-1.757,50.188-6.605,66.478c-3.933,13.213-11.625,40.358-16.342,53.246c-7.078,19.331-15.828,37.969-26.17,55.828
		c-7.988,13.794-16.696,27.089-26.426,39.722c-6.986,9.07-14.014,18.098-22.166,26.18c-0.819,0.812-1.786,1.781-1.347,3.011
		c0.427,1.194,1.725,0.663,2.631,0.667c9.16,0.038,18.322-0.008,27.481,0.044c2.038,0.011,3.396-0.85,4.636-2.396
		c21.159-26.41,39.29-54.651,53.393-85.519c14.778-32.348,25.034-65.987,30.944-101.005c2.608-10.963,4.485-34.947,4.871-45.33
		c0.847-22.736,0.021-45.473-3.042-68.022c-3.528-25.962-9.571-51.373-18.094-76.2c-13.204-38.467-31.958-73.944-56.12-106.644
		C960.896,10.952,956.214,6.797,953.881,1z"/>
	<path fill-rule="evenodd" clip-rule="evenodd" fill="#D7E4EB" d="M401.975,210.076c-1.853,7.081-2.307,14.386-2.885,21.607
		c-0.608,7.59,0.211,15.287-0.208,22.902c-1.016,18.441,3.142,36.154,7.18,53.872c4.068,17.85,9.374,35.367,18.012,51.581
		c12.038,22.595,25.417,44.229,43.78,62.554c13.075,13.047,26.478,25.617,42.016,35.576c29.641,18.998,61.501,32.37,96.561,37.988
		c12.757,2.044,25.377,4.39,39.501,3.656c-2.809,1.603-4.635,1.087-6.363,1.088c-92.815,0.031-185.632-0.127-278.446,0.277
		c-8.809,0.038-13.987-2.979-18.936-9.588c-14.656-19.58-28.296-39.804-39.428-61.576c-13.027-25.483-23.586-51.971-30.827-79.746
		c-2.762-10.597-5.197-21.233-6.96-32.031c-0.337-2.068-0.75-3.975-3.241-4.409c0.263-0.199,0.497-0.47,0.792-0.588
		c57.168-22.877,90.927-63.777,96.572-126.038c2.631-29.02-3.588-56.25-18.121-81.535c-9.152-15.924-21.39-29.239-35.122-41.275
		c2.576-6.84,6.512-12.956,10.32-19.123c8.854-14.339,18.305-28.264,29.111-41.232c0.727-0.872,1.125-2.019,1.675-3.037
		c92.655,0,185.31,0,277.965,0c-0.176,1.409-1.047,1.849-2.387,1.997c-5.581,0.615-11.178,1.159-16.721,2.032
		c-19.082,3.006-37.679,8.06-55.298,15.866c-17.54,7.771-34.114,17.341-49.751,28.703c-11.725,8.52-22.112,18.265-32.392,28.333
		c-16.053,15.721-28.368,34.093-39.07,53.63c-2.675,4.882-4.662,7.642-7.316,15.109c-16.898-1.204-33.792-2.468-50.695-3.588
		c-8.606-0.57-8.599-0.457-6.846,8.151c0.464,2.277,1.12,4.58,1.124,6.871c0.008,4.612,2.132,5.766,6.53,5.642
		c13.957-0.395,27.916-1.227,41.888-0.534c-0.001,1.171-3.56,9.789-7.042,27.876c-12.131,0.065-24.264,0.298-36.391,0.101
		c-3.955-0.064-5.223,1.408-5.549,5.066c-0.352,3.951-1.068,7.903-2.027,11.754c-0.887,3.561-0.281,4.651,3.721,4.31
		C378.436,211.321,390.213,210.79,401.975,210.076z"/>
	<path fill-rule="evenodd" clip-rule="evenodd" fill="#EFEFEF" d="M421.985,146.669c0.686-5.874,4.642-10.227,7.316-15.109
		c10.703-19.537,23.017-37.909,39.07-53.63c10.28-10.067,20.667-19.813,32.392-28.333c15.638-11.362,32.212-20.932,49.751-28.703
		c17.62-7.807,36.217-12.86,55.298-15.866c5.543-0.874,11.14-1.417,16.721-2.032c1.34-0.148,2.211-0.588,2.387-1.997
		c8.332,0,16.665,0,24.997,0c0.002,41.308,0.078,82.617-0.098,123.925c-0.021,4.724,1.144,6.21,6.036,6.172
		c29.147-0.226,58.298-0.03,87.446-0.201c4.245-0.025,5.975,0.881,5.704,5.484c-0.4,6.806-0.117,13.653-0.125,20.482
		c-15.82,0.433-31.621-0.409-47.431-0.667c-20.97-0.342-41.94-0.408-62.91-1.014c-59.076-1.707-118.161-3.118-177.188-6.185
		C448.226,148.313,435.107,147.45,421.985,146.669z"/>
	<path fill-rule="evenodd" clip-rule="evenodd" fill="#D7E4EB" d="M748.883,156.861c0.008-6.829-0.275-13.676,0.125-20.482
		c0.271-4.603-1.459-5.509-5.704-5.484c-29.148,0.171-58.299-0.024-87.446,0.201c-4.893,0.038-6.057-1.448-6.036-6.172
		c0.176-41.308,0.1-82.617,0.098-123.925c9.665,0,19.33,0,28.996,0c1.615,1.761,3.788,0.693,5.67,1.114
		c20.128,4.511,40.276,8.887,59.585,16.426c12.742,4.976,24.398,11.962,36.178,18.733c18.482,10.625,34.729,24.178,49.521,39.39
		c6.777,6.969,12.66,14.833,18.847,22.374c10.081,12.288,16.932,26.427,24.932,39.891c5.853,7.946,19.07,48.897,19.07,56.792
		c-15.441-0.195-41.709-37.004-57.15-37.252C806.672,158.006,777.764,158.128,748.883,156.861z"/>
	<path fill-rule="evenodd" clip-rule="evenodd" fill="#D7E4EB" d="M1016.855,255.772c-0.237-23.188-1.795-46.248-5.814-69.135
		c-5.088-28.98-13.582-56.88-25.223-83.891c-12.881-29.884-29.908-57.25-49.771-82.902C930.988,13.309,925.289,7.268,919.885,1
		c11.332,0,22.664,0,33.996,0c2.333,5.797,7.015,9.952,10.619,14.831c24.162,32.7,42.916,68.177,56.12,106.644
		c8.522,24.828,14.565,50.238,18.094,76.2c3.062,22.549,3.889,45.286,3.042,68.022c-0.386,10.383-0.301,11.449-1.292,21.811
		c-0.964,8.992-0.794,9.621-3.579,23.52c-5.91,35.018-16.166,68.657-30.944,101.005c-14.103,30.867-32.233,59.108-53.393,85.519
		c-1.239,1.547-2.598,2.407-4.636,2.396c-9.159-0.052-18.321-0.006-27.481-0.044c-0.906-0.004-2.204,0.527-2.631-0.667
		c-0.439-1.229,0.527-2.199,1.347-3.011c8.152-8.082,15.18-17.109,22.166-26.18c9.729-12.633,18.438-25.928,26.426-39.722
		c10.342-17.859,19.092-36.497,26.17-55.828c4.717-12.888,8.835-26.037,11.993-39.456c1.923-8.167,3.774-16.338,5.232-24.598
		C1014.423,298.988,1016.668,263.414,1016.855,255.772z"/>
	<path fill-rule="evenodd" clip-rule="evenodd" fill="#D7E4EB" d="M650.812,199.583c-0.012-1.915,0.276-0.435,1.58-0.456
		c42.414-0.693,84.828-1.38,127.244-2.015c36.435-0.545,72.87-1.047,109.306-1.492c2.787-0.034,2.817-2.39,5.6-1.173
		c-2.19,0.181-1.125,1.273-0.212,6.434c5.221,18.141,6.531,36.91,6,55.618c-1.44,44.25-12.425,69.569-14.585,76.333
		c-7.907,24.768-20.744,47.062-35.936,67.892c-12.635,17.321-27.729,32.441-44.662,45.834
		c-19.053,15.068-39.848,26.952-62.151,36.173c-10.534,4.354-21.618,7.358-32.688,10.348c-13.188,3.561-26.327,5.756-40.026,6.271
		c-5.692,0.215-11.602,1.474-17.495,1.601c-2.128,0.046-3.01-0.17-3.001-2.914c0.157-45.157,0.125-90.314,0.142-135.473
		c0.002-6.593,0.017-6.605,6.733-6.606c29.994-0.005,59.988-0.076,89.981,0.084c4.132,0.022,5.431-1.131,5.354-5.317
		c-0.244-13.492-0.237-26.996-0.002-40.488c0.072-4.126-1.116-5.386-5.31-5.363c-30.326,0.166-60.654-0.003-90.979,0.188
		c-4.552,0.029-6.06-1.144-5.887-5.82c0.374-10.151,0.168-28.324,0.199-38.487c33.44,0.407,7.815-0.291,33.44,0.407
		c0.809-0.068,23.542,0.257,46.558-0.21c0.997,0.009,7.994,0.017,8.99,0.026c0.056,2.308,0.021,2.249,0.075-0.058
		c0.105-0.092,1.085-0.701,0.97-0.914c-0.091-2.99-0.162-11.994-0.155-13.595c0.039-8.825-0.177-17.656,0.106-26.472
		c0.129-4.022-1.22-5.069-5.115-5.044c-24.976,0.155-58.828,0.043-83.804,0.023"/>
	<path fill-rule="evenodd" clip-rule="evenodd" fill="#1F89C8" d="M305.851,64.392c13.732,12.036,25.97,25.351,35.122,41.275
		c14.532,25.284,20.751,52.515,18.121,81.535c-5.645,62.261-39.403,103.161-96.572,126.038c-0.295,0.118-0.529,0.389-0.792,0.588
		c-16.069,4.669-32.394,7.257-49.204,7.084c-69.471-0.712-129.203-52.819-139.721-122.092C63.343,136.5,94.547,74.42,150.852,48.673
		c53.074-24.269,104.983-22.801,152.911,14.359C304.417,63.54,305.153,63.941,305.851,64.392z M257.823,258.876
		c-12.298,5.808-25.104,9.727-38.801,10.089c-3.331,0.088-3.113,2.154-3.108,4.397c0.022,11.155,0.114,22.312-0.057,33.465
		c-0.049,3.231,0.844,4.337,4.2,4.227c14.431-0.472,28.387-3.155,41.876-8.292c0.949-0.293,1.917-0.534,2.842-0.889
		c63.423-24.296,98.988-94.796,80.726-160.18c-7.682-27.502-22.124-50.682-44.588-68.612c-0.201-0.261-0.359-0.576-0.609-0.777
		c-23.76-19.149-51.126-28.492-81.398-30.045c-3.436-0.176-3.272,1.856-3.265,4.117c0.034,11.815,0.161,23.632-0.01,35.444
		c-0.039,2.69,0.978,3.503,3.287,3.73c5.122,0.504,10.247,0.879,15.314,1.959c18.62,3.969,34.32,13.116,47.691,26.493
		c0.614,0.772,1.189,1.581,1.849,2.312c24.373,27.005,30.182,66.569,14.832,99.552C289.791,234.807,275.713,248.612,257.823,258.876
		z M215.29,242.709c-0.012,0-0.024,0-0.037,0c0-7.162,0.229-14.335-0.086-21.483c-0.189-4.286,1.402-5.397,5.463-5.284
		c9.487,0.264,18.988,0.003,28.479,0.167c3.02,0.052,4.206-0.851,4.012-3.963c-0.227-3.65-0.198-7.333-0.006-10.988
		c0.164-3.124-1.189-4.067-4.126-4.014c-7.326,0.133-14.657,0.067-21.985,0.08c-12.234,0.022-12.139,0.024-11.793-12.226
		c0.087-3.074,1.166-4.09,4.143-4.007c5.659,0.157,11.325,0.054,16.988,0.053c13.006,0,12.917,0.001,12.612-12.854
		c-0.072-3.018-1.029-4.169-4.057-4.106c-6.826,0.143-13.658,0.131-20.486,0.062c-10.39-0.104-8.875,1.815-9.147-9.377
		c-0.069-2.835,1.044-3.829,3.822-3.776c6.66,0.125,13.324,0.053,19.987,0.055c13.056,0.005,12.929,0.003,12.967-12.968
		c0.01-3.536-1.078-4.619-4.546-4.539c-9.157,0.21-18.325-0.044-27.479,0.199c-3.773,0.1-4.874-1.205-4.802-4.894
		c0.207-10.656,0.064-21.319,0.061-31.979c-0.004-12.286-0.003-12.286-12.375-10.742c-59.382,7.411-96.053,69.93-73.587,125.456
		c13.486,33.333,46.704,56.854,80.937,57.526c3.861,0.076,5.328-0.799,5.137-4.917C215.05,257.044,215.29,249.871,215.29,242.709z"
		/>
	<path fill-rule="evenodd" clip-rule="evenodd" fill="#1F89C8" d="M897.324,195.666c-36.436,0.445-81.253,0.902-117.688,1.447
		c-42.416,0.635-84.83,1.322-127.244,2.015c-1.304,0.021-88.825,2.53-131.261,4.183c-30.944,1.206-61.866,2.988-92.79,4.644
		c-8.802,0.471-17.579,1.401-26.367,2.121c-11.762,0.714-23.539,1.246-35.277,2.244c-4.002,0.341-4.607-0.75-3.721-4.31
		c0.959-3.852,1.675-7.804,2.027-11.754c0.326-3.658,1.594-5.13,5.549-5.066c12.126,0.197,24.26-0.036,36.391-0.102
		c2.314,0.194,4.627,0.545,6.943,0.56c27.649,0.184,55.299,0.376,82.948,0.448c23.649,0.062,47.299-0.031,70.949-0.056
		c2.228,1.027,4.599,0.579,6.898,0.581c76.108,0.073,152.215,0.114,228.322,0.151c29.639,0.014,59.277,0.006,88.917,0.009
		c4.031,0.989,6.065-0.268,6.467-4.728c0.506-5.623,0.62-11.22,0.381-16.838c-0.394-9.272-0.417-9.28-9.402-9.257
		c-1.818,0.005-3.636,0.108-5.452,0.166c-17.107-0.055-34.215-0.161-51.321-0.154c-27.904,0.011-55.81,0.095-83.713,0.147
		c-1.997-0.061-3.994-0.179-5.989-0.173c-90.311,0.254-180.62,0.502-270.93,0.799c-19.326,0.063-38.651,0.309-57.977,0.47
		c-13.972-0.693-27.931,0.139-41.888,0.534c-4.397,0.125-6.521-1.029-6.53-5.642c-0.004-2.292-0.66-4.594-1.124-6.871
		c-1.753-8.608-1.761-8.721,6.846-8.151c16.903,1.12,33.797,2.384,50.695,3.588c13.122,0.78,26.241,1.644,39.368,2.326
		c59.027,3.067,118.112,4.478,177.188,6.185c20.97,0.606,41.94,0.672,62.91,1.014c15.81,0.258,31.61,1.1,47.431,0.667
		c28.881,1.267,57.789,1.145,86.685,1.608c15.441,0.248,30.884,0.399,46.325,0.594c5.312,0.098,10.625,0.271,15.937,0.263
		c2.688-0.004,3.653,1.026,3.968,3.788c1.077,9.458,1.036,18.861,0.143,28.334C901.623,194.791,900.111,195.632,897.324,195.666z"/>
	<path fill-rule="evenodd" clip-rule="evenodd" fill="#EFEFEF" d="M739.081,260.919c-0.121-0.301-0.132-0.605-0.03-0.914
		c0.115,0.213,0.255,0.418,0.329,0.645C739.396,260.701,739.187,260.827,739.081,260.919z"/>
	<path fill-rule="evenodd" clip-rule="evenodd" fill="#EFEFEF" d="M215.29,242.709c0,7.162-0.24,14.335,0.092,21.482
		c0.191,4.118-1.275,4.993-5.137,4.917c-34.233-0.672-67.451-24.193-80.937-57.526c-22.465-55.526,14.206-118.045,73.587-125.456
		c12.372-1.544,12.372-1.544,12.375,10.742c0.004,10.66,0.146,21.323-0.061,31.979c-0.071,3.689,1.029,4.994,4.802,4.894
		c9.154-0.243,18.322,0.012,27.479-0.199c3.468-0.08,4.557,1.003,4.546,4.539c-0.039,12.971,0.089,12.973-12.967,12.968
		c-6.663-0.002-13.327,0.07-19.987-0.055c-2.778-0.053-3.891,0.941-3.822,3.776c0.272,11.192-1.243,9.273,9.147,9.377
		c6.829,0.068,13.66,0.08,20.486-0.062c3.028-0.063,3.985,1.088,4.057,4.106c0.305,12.855,0.395,12.854-12.612,12.854
		c-5.663,0-11.329,0.104-16.988-0.053c-2.978-0.083-4.056,0.933-4.143,4.007c-0.345,12.25-0.44,12.248,11.793,12.226
		c7.329-0.013,14.659,0.053,21.985-0.08c2.938-0.053,4.291,0.89,4.126,4.014c-0.192,3.654-0.221,7.338,0.006,10.988
		c0.193,3.112-0.993,4.015-4.012,3.963c-9.491-0.165-18.992,0.097-28.479-0.167c-4.061-0.113-5.652,0.998-5.463,5.284
		c0.315,7.148,0.086,14.321,0.086,21.483C215.266,242.709,215.278,242.709,215.29,242.709z"/>
	<path fill-rule="evenodd" clip-rule="evenodd" fill="#D7E4EB" d="M300.914,73.081c22.464,17.931,36.906,41.11,44.588,68.612
		c18.263,65.384-17.303,135.884-80.726,160.18c-0.925,0.354-1.893,0.596-2.841,0.889c-0.962-14.093-2.932-28.111-3.114-42.265
		c-0.007-0.545-0.65-1.081-0.998-1.621c17.89-10.264,31.967-24.069,40.783-43.011c15.35-32.983,9.541-72.547-14.832-99.552
		c-0.66-0.731-1.235-1.54-1.849-2.312c1.363-0.573,1.771-1.762,2.216-3.062C288.622,97.83,294.719,85.433,300.914,73.081z"/>
	<path fill-rule="evenodd" clip-rule="evenodd" fill="#EFEFEF" d="M300.914,73.081c-6.195,12.352-12.292,24.749-16.773,37.857
		c-0.445,1.301-0.853,2.49-2.216,3.062c-13.372-13.377-29.071-22.523-47.691-26.493c-5.067-1.08-10.192-1.455-15.314-1.959
		c-2.31-0.227-3.326-1.04-3.287-3.73c0.171-11.812,0.044-23.629,0.01-35.444c-0.007-2.261-0.17-4.293,3.265-4.117
		c30.271,1.553,57.638,10.896,81.398,30.045C300.554,72.505,300.712,72.819,300.914,73.081z"/>
	<path fill-rule="evenodd" clip-rule="evenodd" fill="#EFEFEF" d="M257.823,258.876c0.347,0.54,0.99,1.076,0.998,1.621
		c0.182,14.153,2.151,28.172,3.114,42.266c-13.49,5.136-27.446,7.819-41.877,8.291c-3.356,0.11-4.249-0.995-4.2-4.227
		c0.17-11.153,0.079-22.31,0.057-33.465c-0.004-2.243-0.222-4.31,3.108-4.397C232.719,268.603,245.525,264.684,257.823,258.876z"/>
	<path fill-rule="evenodd" clip-rule="evenodd" fill="#D7E4EB" d="M650.823,192.779c0.016-8.658-0.043-11.821,0.016-13.805
		c0.953-0.01,96.905-0.019,97.857-0.028c0.062,1.98,0.183-15.295,0.185-16.83c27.903-0.053,55.809-0.137,83.713-0.147
		c17.106-0.006,34.214,0.099,51.321,0.154c1.168,3.544,7.48,29.076,7.484,30.657c-29.64-0.002-58.756,0.005-88.395-0.009"/>
	<path fill-rule="evenodd" clip-rule="evenodd" fill="#EFEFEF" d="M892.718,192.779c-0.374-0.335-1.286-3.108-1.291-4.688
		c-0.571-4.554-6.339-22.51-7.512-25.969c1.816-0.058,3.634-0.161,5.452-0.166c8.985-0.023,9.009-0.015,9.402,9.257
		c0.239,5.618,0.125,11.215-0.381,16.838C897.987,192.511,896.749,193.768,892.718,192.779z"/>
	<path fill-rule="evenodd" clip-rule="evenodd" fill="#D7E4EB" d="M410.703,184.985c0.013,0.329,0.025,0.658,0.038,0.987
		c-0.111-0.228-0.25-0.447-0.314-0.688C410.409,185.214,410.605,185.086,410.703,184.985z"/>
	<path fill-rule="evenodd" clip-rule="evenodd" fill="#D7E4EB" d="M659.176,176.969c-0.007-0.328-0.014-0.656-0.021-0.983
		c0.104,0.228,0.238,0.449,0.295,0.688C659.468,176.746,659.273,176.869,659.176,176.969z"/>
</g>
<rect x="616.314" y="251.411" fill="none" width="535.907" height="34"/>
<text transform="matrix(1 0 0 1 616.3145 271.459)" fill="#0585C7" font-family="'Arial-Black'" font-size="28">A complete understanding</text>
<rect x="877" y="293.411" fill="none" width="344" height="44.589"/>
<text transform="matrix(1 0 0 1 877 313.459)" fill="#0585C7" font-family="'Arial-Black'" font-size="28">of who you are hiring</text>
<rect x="362.25" y="166.336" fill="none" width="545.715" height="59.602"/>
<text transform="matrix(1 0 0 1 362.25 187.0996)"><tspan x="0" y="0" fill="#0585C7" font-family="'Arial-Black'" font-size="29">COMPLETE</tspan><tspan x="177.2" y="0" fill="#0585C7" font-family="'Arial-Black'" font-size="29"> E</tspan><tspan x="206.654" y="0" fill="#0585C7" font-family="'Arial-Black'" font-size="29">M</tspan><tspan x="234.606" y="0" fill="#0585C7" font-family="'Arial-Black'" font-size="29">P</tspan><tspan x="255.548" y="0" fill="#0585C7" font-family="'Arial-Black'" font-size="29" letter-spacing="-1">L</tspan><tspan x="273.818" y="0" fill="#0585C7" font-family="'Arial-Black'" font-size="29">OYMENT</tspan><tspan x="413.945" y="0" fill="#0585C7" font-family="'Arial-Black'" font-size="29"> </tspan><tspan x="423.037" y="0" fill="#0585C7" font-family="'Arial-Black'" font-size="29">C</tspan><tspan x="446.174" y="0" fill="#0585C7" font-family="'Arial-Black'" font-size="29">H</tspan><tspan x="469.752" y="0" fill="#0585C7" font-family="'Arial-Black'" font-size="29">ECK</tspan></text>
</svg>
