<?xml version="1.0" encoding="utf-8"?>
<!-- Generator: Adobe Illustrator 16.0.4, SVG Export Plug-In . SVG Version: 6.00 Build 0)  -->
<!DOCTYPE svg PUBLIC "-//W3C//DTD SVG 1.1//EN" "http://www.w3.org/Graphics/SVG/1.1/DTD/svg11.dtd">
<svg version="1.1" id="Layer_1" xmlns="http://www.w3.org/2000/svg" xmlns:xlink="http://www.w3.org/1999/xlink" x="0px" y="0px"
	 width="100%" height="100%" viewBox="0 0 1278 500" enable-background="new 0 0 1278 500" xml:space="preserve">
<g>
	<path fill="#EFEFEF" d="M953.881,1c107.319,0,214.64,0.021,321.959-0.095c3.424-0.004,4.097,0.671,4.095,4.095
		c-0.108,164.312-0.108,328.625,0,492.938c0.002,3.423-0.671,4.095-4.095,4.094c-423.612-0.099-847.227-0.099-1270.84,0
		c-3.422,0.001-4.097-0.669-4.095-4.094C1.014,333.625,1.014,169.313,0.905,5C0.903,1.578,1.575,0.901,4.999,0.905
		C118.984,1.02,232.971,1,346.957,1c-0.551,1.019-0.949,2.165-1.675,3.037c-10.806,12.968-20.257,26.893-29.111,41.232
		c-3.808,6.167-7.744,12.283-10.32,19.123c-0.697-0.451-1.434-0.853-2.088-1.36c-47.927-37.16-99.837-38.628-152.911-14.359
		C94.547,74.42,63.343,136.5,72.805,198.819c10.518,69.273,70.25,121.38,139.721,122.092c16.811,0.173,33.135-2.415,49.204-7.085
		c2.492,0.436,2.904,2.342,3.242,4.41c1.763,10.798,4.198,21.435,6.96,32.031c7.24,27.775,17.799,54.263,30.827,79.746
		c11.131,21.772,24.771,41.996,39.428,61.576c4.948,6.609,10.126,9.626,18.936,9.588c92.814-0.404,185.63-0.246,278.446-0.277
		c1.729-0.001,3.555,0.515,6.363-1.088c-14.124,0.733-26.744-1.612-39.501-3.656c-35.06-5.618-66.92-18.99-96.561-37.988
		c-15.538-9.959-28.941-22.529-42.016-35.576c-18.362-18.324-31.742-39.959-43.78-62.554c-8.638-16.214-13.944-33.731-18.012-51.581
		c-4.038-17.718-8.196-35.431-7.18-53.872c0.419-7.616-0.399-15.312,0.208-22.902c0.578-7.221,1.033-14.526,2.885-21.607
		c8.788-0.72,17.565-1.65,26.367-2.121c30.924-1.656,61.846-3.438,92.79-4.644c42.436-1.653,84.882-3.142,127.354-3.635
		c2.044,1.426,1.403,3.588,1.415,5.503c0.069,10.88-0.971,9.778,10.058,9.788c24.976,0.02,49.953,0.083,74.929-0.073
		c3.896-0.024,5.244,1.022,5.115,5.044c-0.283,8.815-0.067,17.647-0.106,26.472c-0.007,1.601,0.497,3.388-1.118,4.626
		c-4.638-0.973-6.233,1.04-5.602,5.517c0.202,1.438-0.1,2.948-0.17,4.424c-0.996-0.01-1.993-0.018-2.99-0.026
		c-1.862-5.356-6.043-4.07-10.366-4.639c-4.896-0.645-5.917,0.468-5.77,4.645c-0.964-0.001-1.93-0.003-2.896-0.004
		c-1.008-3.745-3.182-6.215-7.214-4.587c-4.133,1.668-8.469,0.396-12.128-0.047c-5.023-0.609-5.789,0.601-5.759,4.638
		c-0.809,0.067-1.617,0.136-2.426,0.204c-4.538-7.11-11.237-7.188-16.481-0.188c-0.744-0.016-1.487-0.033-2.232-0.05
		c-2.566-4.871-7.402-6.462-12.313-4.051c-4.2,2.062-5.015,6.073-2.413,11.881c-0.031,10.163,0.175,20.336-0.199,30.487
		c-0.173,4.677,1.335,5.85,5.887,5.82c30.325-0.19,60.653-0.021,90.979-0.188c4.193-0.022,5.382,1.237,5.31,5.363
		c-0.235,13.492-0.242,26.996,0.002,40.488c0.076,4.187-1.223,5.34-5.354,5.317c-29.993-0.16-59.987-0.089-89.981-0.084
		c-6.717,0.001-6.731,0.014-6.733,6.606c-0.017,45.158,0.016,90.315-0.142,135.473c-0.009,2.744,0.873,2.96,3.001,2.914
		c5.894-0.127,11.803-1.386,17.495-1.601c13.699-0.516,26.839-2.711,40.026-6.271c11.07-2.989,22.154-5.993,32.688-10.348
		c22.304-9.221,43.099-21.104,62.151-36.173c16.933-13.393,32.027-28.513,44.662-45.834c15.191-20.829,28.028-43.124,35.936-67.892
		c2.16-6.764,5.217-13.339,5.179-20.667c2.891-2.215,4.015-5.163,3.636-8.739c0.469-0.5,0.234-6.675,0.563-7.551
		c3.021-8.035,3.526-16.446,3.769-24.898c2.043-1.048,2.005-13.817,0.852-14.655c0.532-18.708-0.192-37.299-5.413-55.44
		c-0.842-2.926-0.529-4.924,2.994-5.217c2.961,0.146,4.299-0.875,4.615-4.218c0.894-9.473,0.935-18.876-0.143-28.334
		c-0.314-2.762-1.279-3.792-3.968-3.788c-5.312,0.008-10.624-0.165-15.937-0.262c-1.127-7.37-4.576-13.958-8.245-20.134
		c-8-13.464-14.851-27.604-24.932-39.891c-6.187-7.541-12.069-15.405-18.847-22.374c-14.792-15.212-31.039-28.765-49.521-39.39
		c-11.779-6.771-23.436-13.758-36.178-18.733c-19.309-7.54-39.457-11.915-59.585-16.426c-1.882-0.421-4.055,0.647-5.67-1.114
		c80.323,0,160.646,0,240.97,0c5.404,6.268,11.104,12.309,16.163,18.844c19.862,25.652,36.89,53.018,49.771,82.902
		c11.641,27.011,20.135,54.911,25.223,83.891c4.02,22.887,5.577,45.947,5.814,69.135c-2.393-0.56-5.246,21.346-2.148,20.484
		c1.088,7.298-1.237,14.464-0.836,21.734c-6.431,3.992-7.205,7.799-2.736,13.45c-1.459,8.261-3.311,16.432-5.233,24.599
		c-3.158,13.419-7.276,26.568-11.993,39.456c-7.078,19.331-15.828,37.969-26.17,55.828c-7.988,13.794-16.696,27.089-26.426,39.722
		c-6.986,9.07-14.014,18.098-22.166,26.18c-0.819,0.812-1.786,1.781-1.347,3.011c0.427,1.194,1.725,0.663,2.631,0.667
		c9.16,0.038,18.322-0.008,27.481,0.044c2.038,0.011,3.396-0.85,4.636-2.396c21.159-26.41,39.29-54.651,53.393-85.519
		c14.778-32.348,25.034-65.987,30.944-101.005c6.008,1.98,6.506,1.64,6.523-4.463c0.004-1.654-0.201-3.338,0.041-4.956
		c0.55-3.677-0.946-5.198-4.563-4.824c0.991-10.361,2.484-20.704,2.87-31.087c0.847-22.736,0.021-45.473-3.042-68.022
		c-3.528-25.962-9.571-51.373-18.094-76.2c-13.204-38.467-31.958-73.944-56.12-106.644C960.896,10.952,956.214,6.797,953.881,1z
		 M971.337,253.728 M1007.803,298.63c-7.509-3.399-5,5.098-8.287,6.681c-2.404-2.731-1.007-9.836-8.189-6.61
		c1.648,4.142,3.202,8.158,4.847,12.136c0.821,1.987,1.021,3.63-1.676,4.039c-1.314,0.2-2.828-0.019-2.507,2.078
		c0.314,2.047,1.854,1.977,3.396,2.033c2.938,0.107,5.294-0.809,6.38-3.719C1003.844,309.706,1005.821,304.108,1007.803,298.63z
		 M980.547,305.685"/>
	<path fill-rule="evenodd" clip-rule="evenodd" fill="#D7E4EB" d="M401.975,210.076c-1.853,7.081-2.307,14.386-2.885,21.607
		c-0.608,7.59,0.211,15.287-0.208,22.902c-1.016,18.441,3.142,36.154,7.18,53.872c4.068,17.85,9.374,35.367,18.012,51.581
		c12.038,22.595,25.417,44.229,43.78,62.554c13.075,13.047,26.478,25.617,42.016,35.576c29.641,18.998,61.501,32.37,96.561,37.988
		c12.757,2.044,25.377,4.39,39.501,3.656c-2.809,1.603-4.635,1.087-6.363,1.088c-92.815,0.031-185.632-0.127-278.446,0.277
		c-8.809,0.038-13.987-2.979-18.936-9.588c-14.656-19.58-28.296-39.804-39.428-61.576c-13.027-25.483-23.586-51.971-30.827-79.746
		c-2.762-10.597-5.197-21.233-6.96-32.031c-0.337-2.068-0.75-3.975-3.241-4.409c0.263-0.199,0.497-0.47,0.792-0.588
		c57.168-22.877,90.927-63.777,96.572-126.038c2.631-29.02-3.588-56.25-18.121-81.535c-9.152-15.924-21.39-29.239-35.122-41.275
		c2.576-6.84,6.512-12.956,10.32-19.123c8.854-14.339,18.305-28.264,29.111-41.232c0.727-0.872,1.125-2.019,1.675-3.037
		c92.655,0,185.31,0,277.965,0c-0.176,1.409-1.047,1.849-2.387,1.997c-5.581,0.615-11.178,1.159-16.721,2.032
		c-19.082,3.006-37.679,8.06-55.298,15.866c-17.54,7.771-34.114,17.341-49.751,28.703c-11.725,8.52-22.112,18.265-32.392,28.333
		c-16.053,15.721-28.368,34.093-39.07,53.63c-2.675,4.882-6.63,9.235-7.316,15.109c-16.898-1.204-33.792-2.468-50.695-3.588
		c-8.606-0.57-8.599-0.457-6.846,8.151c0.464,2.277,1.12,4.58,1.124,6.871c0.008,4.612,2.132,5.766,6.53,5.642
		c13.957-0.395,27.916-1.227,41.888-0.534c-0.001,1.171-0.002,2.342-0.004,3.514c-2.193,0.033-3.278,0.931-3.169,3.336
		c0.135,2.975-0.058,5.964-0.109,8.948c-3.833,3.223-3.281,7.811-3.759,12.078c-12.131,0.065-24.264,0.298-36.391,0.101
		c-3.955-0.064-5.223,1.408-5.549,5.066c-0.352,3.951-1.068,7.903-2.027,11.754c-0.887,3.561-0.281,4.651,3.721,4.31
		C378.436,211.321,390.213,210.79,401.975,210.076z M396.719,188.033c6.893,0.05,10.92-3.923,10.869-10.723
		c-0.05-6.631-4.284-10.891-10.905-10.972c-6.257-0.077-10.778,4.297-10.806,10.454C385.845,184.137,389.551,187.98,396.719,188.033
		z M374.091,188.027c2.943,0.194,5.751-0.319,7.648-2.759c0.96-1.233,3.138-2.823,0.886-4.512c-1.523-1.142-3.669-2.065-5.231,0.312
		c-1.601,2.437-3.899,3.145-5.787,1.028c-2.45-2.747-2.354-6.258-0.216-9.246c1.672-2.336,3.737-2.347,5.78,0.013
		c1.664,1.921,4.197,1.297,5.388-0.031c1.648-1.838-0.68-3.247-1.916-4.336c-3.235-2.854-9.196-2.82-13.088-0.149
		c-3.75,2.572-4.97,7.359-3.338,13.097C365.636,186.435,369.209,188.208,374.091,188.027z"/>
	<path fill-rule="evenodd" clip-rule="evenodd" fill="#EFEFEF" d="M421.985,146.669c0.686-5.874,4.642-10.227,7.316-15.109
		c10.703-19.537,23.017-37.909,39.07-53.63c10.28-10.067,20.667-19.813,32.392-28.333c15.638-11.362,32.212-20.932,49.751-28.703
		c17.62-7.807,36.217-12.86,55.298-15.866c5.543-0.874,11.14-1.417,16.721-2.032c1.34-0.148,2.211-0.588,2.387-1.997
		c8.332,0,16.665,0,24.997,0c0.002,41.308,0.078,82.617-0.098,123.925c-0.021,4.724,1.144,6.21,6.036,6.172
		c29.147-0.226,58.298-0.03,87.446-0.201c4.245-0.025,5.975,0.881,5.704,5.484c-0.4,6.806-0.117,13.653-0.125,20.482
		c-15.82,0.433-31.621-0.409-47.431-0.667c-20.97-0.342-41.94-0.408-62.91-1.014c-59.076-1.707-118.161-3.118-177.188-6.185
		C448.226,148.313,435.107,147.45,421.985,146.669z"/>
	<path fill-rule="evenodd" clip-rule="evenodd" fill="#D7E4EB" d="M748.883,156.861c0.008-6.829-0.275-13.676,0.125-20.482
		c0.271-4.603-1.459-5.509-5.704-5.484c-29.148,0.171-58.299-0.024-87.446,0.201c-4.893,0.038-6.057-1.448-6.036-6.172
		c0.176-41.308,0.1-82.617,0.098-123.925c9.665,0,19.33,0,28.996,0c1.615,1.761,3.788,0.693,5.67,1.114
		c20.128,4.511,40.276,8.887,59.585,16.426c12.742,4.976,24.398,11.962,36.178,18.733c18.482,10.625,34.729,24.178,49.521,39.39
		c6.777,6.969,12.66,14.833,18.847,22.374c10.081,12.288,16.932,26.427,24.932,39.891c3.669,6.176,7.118,12.765,8.245,20.134
		c-15.441-0.195-30.884-0.346-46.325-0.594C806.672,158.006,777.764,158.128,748.883,156.861z"/>
	<path fill-rule="evenodd" clip-rule="evenodd" fill="#D7E4EB" d="M1016.855,255.772c-0.237-23.188-1.795-46.248-5.814-69.135
		c-5.088-28.98-13.582-56.88-25.223-83.891c-12.881-29.884-29.908-57.25-49.771-82.902C930.988,13.309,925.289,7.268,919.885,1
		c11.332,0,22.664,0,33.996,0c2.333,5.797,7.015,9.952,10.619,14.831c24.162,32.7,42.916,68.177,56.12,106.644
		c8.522,24.828,14.565,50.238,18.094,76.2c3.062,22.549,3.889,45.286,3.042,68.022c-0.386,10.383-1.879,20.726-2.87,31.087
		c-2.286,2.594-0.447,5.756-1.178,8.568c-0.307,1.177-0.703,2.343-2.139,2.337c-1.573-0.006-1.719-1.299-1.798-2.483
		c-0.067-0.994,0.084-2.014-0.074-2.988c-0.342-2.104,1.445-5.364-3.011-5.294c-4.14,0.064-2.375,3.093-2.735,5.04
		c-0.149,0.804-0.033,1.659-0.023,2.49c0.085,6.96,2.284,8.573,8.957,6.573c-5.91,35.018-16.166,68.657-30.944,101.005
		c-14.103,30.867-32.233,59.108-53.393,85.519c-1.239,1.547-2.598,2.407-4.636,2.396c-9.159-0.052-18.321-0.006-27.481-0.044
		c-0.906-0.004-2.204,0.527-2.631-0.667c-0.439-1.229,0.527-2.199,1.347-3.011c8.152-8.082,15.18-17.109,22.166-26.18
		c9.729-12.633,18.438-25.928,26.426-39.722c10.342-17.859,19.092-36.497,26.17-55.828c4.717-12.888,8.835-26.037,11.993-39.456
		c1.923-8.167,3.774-16.338,5.232-24.598c8.141,3.381,14.555,0.122,13.771-6.993c-0.527-4.793-3.531-6.551-11.033-6.458
		c-0.401-7.271,1.924-14.437,0.836-21.733C1020.369,269.948,1017.869,262.782,1016.855,255.772z"/>
	<path fill-rule="evenodd" clip-rule="evenodd" fill="#D7E4EB" d="M890.924,312.166c0.038,7.328-3.019,13.903-5.179,20.667
		c-7.907,24.768-20.744,47.062-35.936,67.892c-12.635,17.321-27.729,32.441-44.662,45.834
		c-19.053,15.068-39.848,26.952-62.151,36.173c-10.534,4.354-21.618,7.358-32.688,10.348c-13.188,3.561-26.327,5.756-40.026,6.271
		c-5.692,0.215-11.602,1.474-17.495,1.601c-2.128,0.046-3.01-0.17-3.001-2.914c0.157-45.157,0.125-90.314,0.142-135.473
		c0.002-6.593,0.017-6.605,6.733-6.606c29.994-0.005,59.988-0.076,89.981,0.084c4.132,0.022,5.431-1.131,5.354-5.317
		c-0.244-13.492-0.237-26.996-0.002-40.488c0.072-4.126-1.116-5.386-5.31-5.363c-30.326,0.166-60.654-0.003-90.979,0.188
		c-4.552,0.029-6.06-1.144-5.887-5.82c0.374-10.151,0.168-20.324,0.199-30.487c2.538,1.803,5.363,2.587,8.449,2.194
		c2.356-0.3,4.517-1.053,5.849-3.256c0.375-0.621,0.571-1.303-0.138-1.692c-2.07-1.137-3.957-0.999-5.924,0.566
		c-1.139,0.906-2.6,0.337-3.479-0.879c-1.091-1.509-1.074-3.099,0.104-4.575c0.946-1.187,2.492-1.753,3.472-0.726
		c2.118,2.222,4.216,1.052,6.393,0.537c0.745,0.017,1.488,0.034,2.232,0.05c-0.079,6.886,2.649,10.124,8.427,10.005
		c5.738-0.117,8.315-3.259,8.055-9.817c0.809-0.068,1.617-0.137,2.426-0.204c0.062,2.328,0.208,4.659,0.157,6.985
		c-0.043,2.009,0.516,3.087,2.795,3.074c2.128-0.012,3.03-0.763,2.949-2.919c-0.074-1.992,0.002-3.999,0.16-5.987
		c0.082-1.027,0.644-1.945,1.862-1.941c1.263,0.005,1.7,1.037,1.795,2.016c0.176,1.818,0.166,3.657,0.177,5.488
		c0.01,1.731-0.085,3.272,2.465,3.348c2.789,0.082,2.806-1.533,2.82-3.514c0.014-1.821,0.15-3.654,0.407-5.457
		c0.141-0.986,0.666-1.959,1.914-1.93c1.332,0.031,1.553,1.091,1.604,2.103c0.082,1.662,0.111,3.332,0.057,4.996
		c-0.073,2.186,0.035,3.879,3.065,3.824c2.801-0.051,2.771-1.65,2.756-3.599c-0.017-2.164,0.073-4.328,0.116-6.491
		c0.966,0.001,1.932,0.003,2.896,0.004c0.06,2.966-0.269,6.008,0.297,8.873c0.478,2.416-2.576,6.525,2.486,7.073
		c5.553,0.602,1.924-4.453,3.662-6.321c7.757,1.02,9.533-0.729,9.69-9.631c0.997,0.009,1.994,0.017,2.99,0.026
		c0.056,2.308,0.23,4.62,0.136,6.921c-0.098,2.389,0.911,3.139,3.226,3.128c2.425-0.011,2.586-1.361,2.57-3.185
		c-0.021-2.307,0.09-4.615,0.144-6.922c0.105-0.092,0.315-0.218,0.299-0.27c-0.074-0.227-0.214-0.432-0.329-0.645
		c-0.091-2.99-0.183-5.979-0.273-8.969c1.615-1.238,1.111-3.025,1.118-4.626c0.039-8.825-0.177-17.656,0.106-26.472
		c0.129-4.022-1.22-5.069-5.115-5.044c-24.976,0.155-49.953,0.093-74.929,0.073c-11.028-0.009-9.988,1.093-10.058-9.788
		c-0.012-1.915,0.629-4.078-1.412-5.501c1.303-0.189,2.601-0.528,3.904-0.549c42.414-0.693,84.828-1.38,127.244-2.015
		c36.435-0.545,72.87-1.047,109.306-1.492c2.787-0.034,5.6-1.173,8.382,0.044c-3.523,0.292-3.836,2.291-2.994,5.217
		c5.221,18.141,5.945,36.731,5.414,55.439c-1.82-0.119-4.529,14.432-0.853,14.656c-0.242,8.452-0.748,16.863-3.769,24.898
		c-0.329,0.876,0.835,4.736,0.843,6.049C895.497,302.426,890.128,312.373,890.924,312.166z M742.673,259.17
		c-2.328,3.347-1.383,8.448,1.954,10.556 M746.616,264.982 M886.683,257.062"/>
	<path fill-rule="evenodd" clip-rule="evenodd" fill="#1F89C8" d="M305.851,64.392c13.732,12.036,25.97,25.351,35.122,41.275
		c14.532,25.284,20.751,52.515,18.121,81.535c-5.645,62.261-39.403,103.161-96.572,126.038c-0.295,0.118-0.529,0.389-0.792,0.588
		c-16.069,4.669-32.394,7.257-49.204,7.084c-69.471-0.712-129.203-52.819-139.721-122.092C63.343,136.5,94.547,74.42,150.852,48.673
		c53.074-24.269,104.983-22.801,152.911,14.359C304.417,63.54,305.153,63.941,305.851,64.392z M257.823,258.876
		c-12.298,5.808-25.104,9.727-38.801,10.089c-3.331,0.088-3.113,2.154-3.108,4.397c0.022,11.155,0.114,22.312-0.057,33.465
		c-0.049,3.231,0.844,4.337,4.2,4.227c14.431-0.472,28.387-3.155,41.876-8.292c0.949-0.293,1.917-0.534,2.842-0.889
		c63.423-24.296,98.988-94.796,80.726-160.18c-7.682-27.502-22.124-50.682-44.588-68.612c-0.201-0.261-0.359-0.576-0.609-0.777
		c-23.76-19.149-51.126-28.492-81.398-30.045c-3.436-0.176-3.272,1.856-3.265,4.117c0.034,11.815,0.161,23.632-0.01,35.444
		c-0.039,2.69,0.978,3.503,3.287,3.73c5.122,0.504,10.247,0.879,15.314,1.959c18.62,3.969,34.32,13.116,47.691,26.493
		c0.614,0.772,1.189,1.581,1.849,2.312c24.373,27.005,30.182,66.569,14.832,99.552C289.791,234.807,275.713,248.612,257.823,258.876
		z M215.29,242.709c-0.012,0-0.024,0-0.037,0c0-7.162,0.229-14.335-0.086-21.483c-0.189-4.286,1.402-5.397,5.463-5.284
		c9.487,0.264,18.988,0.003,28.479,0.167c3.02,0.052,4.206-0.851,4.012-3.963c-0.227-3.65-0.198-7.333-0.006-10.988
		c0.164-3.124-1.189-4.067-4.126-4.014c-7.326,0.133-14.657,0.067-21.985,0.08c-12.234,0.022-12.139,0.024-11.793-12.226
		c0.087-3.074,1.166-4.09,4.143-4.007c5.659,0.157,11.325,0.054,16.988,0.053c13.006,0,12.917,0.001,12.612-12.854
		c-0.072-3.018-1.029-4.169-4.057-4.106c-6.826,0.143-13.658,0.131-20.486,0.062c-10.39-0.104-8.875,1.815-9.147-9.377
		c-0.069-2.835,1.044-3.829,3.822-3.776c6.66,0.125,13.324,0.053,19.987,0.055c13.056,0.005,12.929,0.003,12.967-12.968
		c0.01-3.536-1.078-4.619-4.546-4.539c-9.157,0.21-18.325-0.044-27.479,0.199c-3.773,0.1-4.874-1.205-4.802-4.894
		c0.207-10.656,0.064-21.319,0.061-31.979c-0.004-12.286-0.003-12.286-12.375-10.742c-59.382,7.411-96.053,69.93-73.587,125.456
		c13.486,33.333,46.704,56.854,80.937,57.526c3.861,0.076,5.328-0.799,5.137-4.917C215.05,257.044,215.29,249.871,215.29,242.709z"
		/>
	<path fill-rule="evenodd" clip-rule="evenodd" fill="#1F89C8" d="M897.324,195.666c-2.782-1.217-5.595-0.078-8.382-0.044
		c-36.436,0.445-72.871,0.947-109.306,1.492c-42.416,0.635-84.83,1.322-127.244,2.015c-1.304,0.021-2.602,0.36-3.904,0.549
		c-42.475,0.491-84.92,1.98-127.356,3.633c-30.944,1.206-61.866,2.988-92.79,4.644c-8.802,0.471-17.579,1.401-26.367,2.121
		c-11.762,0.714-23.539,1.246-35.277,2.244c-4.002,0.341-4.607-0.75-3.721-4.31c0.959-3.852,1.675-7.804,2.027-11.754
		c0.326-3.658,1.594-5.13,5.549-5.066c12.126,0.197,24.26-0.036,36.391-0.102c2.314,0.194,4.627,0.545,6.943,0.56
		c27.649,0.184,55.299,0.376,82.948,0.448c23.649,0.062,47.299-0.031,70.949-0.056c2.228,1.027,4.599,0.579,6.898,0.581
		c76.108,0.073,152.215,0.114,228.322,0.151c29.639,0.014,59.277,0.006,88.917,0.009c4.031,0.989,6.065-0.268,6.467-4.728
		c0.506-5.623,0.62-11.22,0.381-16.838c-0.394-9.272-0.417-9.28-9.402-9.257c-1.818,0.005-3.636,0.108-5.452,0.166
		c-17.107-0.055-34.215-0.161-51.321-0.154c-27.904,0.011-55.81,0.095-83.713,0.147c-1.997-0.061-3.994-0.179-5.989-0.173
		c-90.311,0.254-180.62,0.502-270.93,0.799c-19.326,0.063-38.651,0.309-57.977,0.47c-13.972-0.693-27.931,0.139-41.888,0.534
		c-4.397,0.125-6.521-1.029-6.53-5.642c-0.004-2.292-0.66-4.594-1.124-6.871c-1.753-8.608-1.761-8.721,6.846-8.151
		c16.903,1.12,33.797,2.384,50.695,3.588c13.122,0.78,26.241,1.644,39.368,2.326c59.027,3.067,118.112,4.478,177.188,6.185
		c20.97,0.606,41.94,0.672,62.91,1.014c15.81,0.258,31.61,1.1,47.431,0.667c28.881,1.267,57.789,1.145,86.685,1.608
		c15.441,0.248,30.884,0.399,46.325,0.594c5.312,0.098,10.625,0.271,15.937,0.263c2.688-0.004,3.653,1.026,3.968,3.788
		c1.077,9.458,1.036,18.861,0.143,28.334C901.623,194.791,900.285,195.811,897.324,195.666z"/>
	<path fill-rule="evenodd" clip-rule="evenodd" fill="#EFEFEF" d="M413.985,163.211c19.326-0.161,38.651-0.406,57.977-0.47
		c90.31-0.296,180.619-0.544,270.93-0.799c1.995-0.006,3.992,0.112,5.989,0.173c-0.002,1.535-0.004,3.07-0.006,4.605
		c-7.566,0.307-1.927,6.919-4.936,9.94c-1.31-1.923-2.751-3.691-3.806-5.665c-1.811-3.386-4.457-4.717-8.188-4.003
		c-2.163,2.824-0.698,6.083-1.066,9.123c-0.402,3.322-1.729,3.751-4.14,1.583c0.243-2.837-1.132-3.765-3.861-3.676
		c-1.95,0.063-4.144,0.667-6.623-1.246c3.218-1.722,6.027-0.795,8.647-1.064c1.666-0.171,2.268-1.055,2.226-2.639
		c-0.038-1.421-0.684-2.192-2.107-2.144c-4.778,0.163-10.249-1.594-14.118,0.726c-2.905,1.743-0.47,7.107-1.13,10.801
		c-0.029,0.163-0.051,0.327-0.076,0.491c-0.952,0.009-1.904,0.019-2.857,0.028c-0.066-2.156,0.018-4.331-0.243-6.463
		c-0.262-2.141,1.448-5.446-2.809-5.59c-3.302-0.112-6.751-0.775-7.144,4.387c-0.149,1.956-0.208,4.485-2.387,6.257
		c-0.569-2.293-1.273-4.195-1.48-6.15c-0.492-4.643-3.575-4.727-7.124-4.526c-4.399,0.249-2.412,3.522-2.711,5.595
		c-0.306,2.121-0.17,4.307-0.229,6.463c-2.939-0.382-6.101,1.06-8.831-1.063c1.49-3.746,4.859-6.507,5.843-10.445
		c-6.028-2.658-7.521,2.53-10.334,5.995c-2.401-4.191-4.424-8.6-10.391-5.801c2.025,3.413,4.022,6.779,6.021,10.146
		c-1.624,2.035-3.88,0.904-5.856,1.168c0.004-0.659,0.008-1.319,0.012-1.978c0.098-0.1,0.292-0.223,0.274-0.295
		c-0.057-0.239-0.19-0.46-0.295-0.688c-1.784-7.783-5.658-10.363-13.667-9.106c-5.539,0.87-8.272,5.009-7.837,11.867
		c0.401,6.326,4.278,9.08,13.24,9.403c0.58,4.296-2.38,3.806-5.069,3.807c-26.012,0.015-52.025,0.052-78.038,0.083
		c-23.65,0.024-47.3,0.117-70.949,0.055c-27.649-0.071-55.299-0.264-82.948-0.448c-2.316-0.015-4.629-0.366-6.943-0.56
		c0.478-4.267-0.074-8.855,3.76-12.078c0,1.992,0,3.984,0,5.976c-0.098,0.101-0.294,0.229-0.276,0.299
		c0.063,0.24,0.203,0.46,0.314,0.688c0.849,1.904,2.471,2.24,4.164,1.654c1.908-0.661,1.184-2.512,1.238-3.899
		c0.097-2.513,0.027-5.032,0.027-7.548c1.696,2.891,2.497,5.878,3.282,8.869c0.482,1.836,1.552,2.88,3.555,2.775
		c1.886-0.099,2.465-1.428,2.844-2.956c0.794-3.203,1.581-6.406,2.371-9.609c0.705,2.645,0.641,5.141,0.725,7.631
		c0.069,2.028-0.735,4.726,2.623,4.897c3.645,0.186,2.614-2.693,2.676-4.627c0.118-3.658-0.309-7.363,0.11-10.976
		c0.547-4.71-1.505-5.749-5.671-5.354c-2.188,0.207-3.268,0.892-3.765,3.061c-0.583,2.545-0.762,5.261-2.335,7.568
		c-2.877-3.667-0.077-11.74-8.603-10.733C413.983,165.554,413.984,164.383,413.985,163.211z M576.766,177.122
		c0.296-0.091,0.592-0.182,0.888-0.273c0.495,1.863,0.836,3.786,1.523,5.574c0.806,2.099,0.057,5.513,3.869,5.378
		c3.72-0.131,2.855-3.534,3.671-5.628c0.747-1.915,1.039-4.008,1.532-6.022c0.844,2.695,0.854,5.181,0.841,7.667
		c-0.011,2.168,0.257,4.072,3.126,4.024c2.741-0.046,2.615-1.978,2.613-3.854c-0.003-3.992-0.301-8.013,0.071-11.97
		c0.404-4.302-1.252-5.453-5.326-5.23c-2.682,0.146-3.851,1.077-4.42,3.534c-0.556,2.4-0.657,5.018-2.558,7.589
		c-0.911-3.351-1.589-6.079-2.4-8.768c-1.174-3.893-4.425-1.852-6.765-2.158c-2.435-0.32-2.419,1.639-2.416,3.371
		c0.011,4.658,0.05,9.317-0.017,13.974c-0.03,2.135,0.458,3.565,2.99,3.514c2.658-0.054,2.787-1.818,2.779-3.768
		C576.759,181.758,576.766,179.44,576.766,177.122z M556.229,172.861c3.424-1.774,6.241-0.852,8.858-1.162
		c1.729-0.205,2.797-0.883,2.708-2.808c-0.088-1.89-1.416-1.984-2.797-1.991c-2.489-0.014-4.979,0-7.469,0.004
		c-8.112,0.014-7.346-0.85-7.353,7.568c-0.011,14.031-0.007,14.025,14.034,13.379c1.834-0.084,3.877,0.197,3.812-2.603
		c-0.07-2.996-2.42-1.878-4.015-2.288c-2.37-0.609-6.683,1.946-6.72-2.246c-0.03-3.337,3.994-1.28,6.162-1.729
		c1.622-0.335,3.428,0.064,3.506-2.423c0.079-2.499-1.608-2.409-3.341-2.505C561.464,173.94,559.148,174.596,556.229,172.861z
		 M527.022,172.053c2.538-0.131,5.078-0.241,7.613-0.402c1.515-0.096,2.47-0.802,2.505-2.468c0.037-1.742-0.917-2.291-2.489-2.283
		c-3.983,0.021-7.967,0.061-11.948-0.023c-2.206-0.047-2.868,1.001-2.839,3.038c0.071,4.978,0.045,9.957,0.019,14.936
		c-0.009,1.703,0.413,2.972,2.421,2.975c4.314,0.005,8.629,0.005,12.943-0.007c1.574-0.005,2.472-0.747,2.537-2.391
		c0.081-2.065-1.183-2.471-2.887-2.444c-1.991,0.031-3.983,0.016-5.974-0.012c-1.342-0.019-2.23-0.576-2.189-2.075
		c0.041-1.504,0.985-1.947,2.304-1.949c1.328-0.001,2.655-0.031,3.983-0.016c1.749,0.02,3.499-0.06,3.585-2.379
		c0.088-2.379-1.644-2.386-3.41-2.508C531.154,173.903,528.942,174.775,527.022,172.053z M485.026,173.407
		c0.01-0.577,0.02-1.155,0.029-1.732c2.437,0,4.873,0.032,7.309-0.01c1.741-0.03,2.814-0.779,2.767-2.726
		c-0.046-1.92-1.337-2.031-2.744-2.034c-3.829-0.006-7.659,0.045-11.487-0.027c-2.046-0.038-3.073,0.659-3.037,2.865
		c0.08,4.994,0.07,9.99,0.007,14.984c-0.025,2.009,0.6,3.16,2.809,3.131c3.995-0.051,7.991-0.029,11.987-0.017
		c1.692,0.005,3.021-0.49,3.079-2.432c0.062-2.024-1.291-2.432-2.99-2.409c-1.998,0.027-3.996-0.011-5.993-0.046
		c-1.438-0.025-2.111-0.806-2.035-2.222c0.065-1.213,0.791-1.751,1.947-1.77c1.665-0.027,3.33-0.065,4.995-0.039
		c1.761,0.027,2.964-0.621,2.947-2.532c-0.018-2.031-1.454-2.239-3.1-2.339C489.352,173.922,487.01,174.674,485.026,173.407z
		 M437.857,176.627c0,2.653,0.038,5.306-0.013,7.958c-0.038,1.958,0.615,3.163,2.782,3.246c2.058,0.079,3.76-0.251,3.637-2.816
		c-0.157-3.275,1.489-4.05,4.532-4.283c4.739-0.363,7.168-3.24,6.928-7.45c-0.261-4.59-3.251-6.086-7.377-6.357
		C437.844,166.233,437.846,166.199,437.857,176.627z M605.769,166.892c-8.128,0.166-7.056-0.961-7.146,7.187
		c-0.039,3.485,0.032,6.973,0,10.458c-0.021,2.272,0.99,3.33,3.307,3.302c2-0.023,3.293-0.729,3.085-2.886
		c-0.339-3.51,1.708-3.871,4.548-4.226c5.993-0.751,8.932-7.078,5.445-11.299C612.57,166.473,609.067,166.952,605.769,166.892z
		 M507.736,166.908c-2.152,0-4.304-0.021-6.456,0.007c-1.467,0.019-3.147-0.221-3.33,1.963c-0.187,2.245,1.175,2.992,3.089,2.798
		c3.472-0.352,3.674,1.733,3.585,4.33c-0.102,2.975-0.028,5.958,0.024,8.937c0.038,2.08,1.29,2.852,3.238,2.893
		c2.114,0.045,2.979-0.976,2.945-3.028c-0.048-2.813,0.097-5.633-0.037-8.44c-0.135-2.83,0.241-4.922,3.86-4.706
		c1.842,0.11,2.588-1.111,2.433-2.932c-0.165-1.938-1.586-1.803-2.896-1.82C512.04,166.881,509.887,166.903,507.736,166.908z
		 M458.97,176.938c0,2.664,0.025,5.328-0.009,7.991c-0.023,1.793,0.673,2.884,2.588,2.886c3.662,0.003,7.324,0.015,10.986-0.034
		c1.873-0.025,2.593-1.129,2.568-2.927c-0.025-1.891-1.29-1.948-2.694-2.112c-7.257-0.851-7.253-0.875-7.272-8.205
		c-0.004-1.498-0.062-2.998-0.021-4.495c0.065-2.349-1.059-3.208-3.364-3.19c-2.239,0.018-2.886,1.07-2.814,3.094
		C459.022,172.275,458.958,174.607,458.97,176.938z M619.784,176.962c0,2.652,0,5.304,0,7.957c0,1.401,0.157,2.826,1.954,2.859
		c3.975,0.073,7.954,0.054,11.929-0.032c1.607-0.035,2.238-1.099,2.278-2.667c0.045-1.768-0.932-2.123-2.457-2.344
		c-7.531-1.096-7.524-1.137-7.544-8.735c-0.003-1.326-0.048-2.652-0.02-3.978c0.05-2.394-1.279-3.094-3.457-3.158
		c-2.351-0.069-2.747,1.232-2.703,3.137C619.818,172.32,619.777,174.642,619.784,176.962z"/>
	<path fill-rule="evenodd" clip-rule="evenodd" fill="#1F89C8" d="M410.703,184.985c0-1.992,0-3.984,0-5.976
		c0.051-2.983,0.244-5.972,0.108-8.947c-0.109-2.405,0.977-3.303,3.169-3.336c8.526-1.007,5.726,7.065,8.603,10.733
		c1.573-2.307,1.752-5.022,2.335-7.568c0.497-2.169,1.577-2.854,3.765-3.061c4.166-0.395,6.218,0.645,5.671,5.354
		c-0.419,3.613,0.008,7.318-0.11,10.976c-0.062,1.934,0.969,4.813-2.676,4.627c-3.358-0.171-2.554-2.869-2.623-4.897
		c-0.084-2.491-0.02-4.987-0.725-7.631c-0.79,3.203-1.577,6.406-2.371,9.609c-0.379,1.527-0.958,2.857-2.844,2.956
		c-2.002,0.105-3.072-0.939-3.555-2.775c-0.785-2.991-1.585-5.979-3.282-8.869c0,2.517,0.07,5.035-0.027,7.548
		c-0.054,1.387,0.67,3.239-1.238,3.899c-1.693,0.586-3.315,0.25-4.164-1.654C410.729,185.643,410.716,185.313,410.703,184.985z"/>
	<path fill-rule="evenodd" clip-rule="evenodd" fill="#1F89C8" d="M396.719,188.033c-7.168-0.052-10.875-3.896-10.842-11.241
		c0.027-6.157,4.549-10.531,10.806-10.454c6.622,0.082,10.855,4.341,10.905,10.972C407.64,184.109,403.612,188.083,396.719,188.033z
		 M400.912,178.386c-0.076-4.29-0.837-7.279-4.508-7.101c-3.707,0.181-4.043,3.626-4.025,6.419c0.017,2.662,0.624,5.764,4.235,5.604
		C400.267,183.147,401.026,180.342,400.912,178.386z"/>
	<path fill-rule="evenodd" clip-rule="evenodd" fill="#1F89C8" d="M374.091,188.027c-4.882,0.181-8.455-1.592-9.873-6.582
		c-1.632-5.738-0.411-10.525,3.338-13.097c3.892-2.671,9.853-2.705,13.088,0.149c1.236,1.089,3.563,2.498,1.916,4.336
		c-1.191,1.328-3.724,1.952-5.388,0.031c-2.043-2.36-4.108-2.35-5.78-0.013c-2.138,2.988-2.234,6.5,0.216,9.246
		c1.887,2.117,4.186,1.409,5.787-1.028c1.562-2.377,3.708-1.454,5.231-0.312c2.251,1.689,0.074,3.278-0.886,4.512
		C379.843,187.708,377.035,188.222,374.091,188.027z"/>
	<path fill-rule="evenodd" clip-rule="evenodd" fill="#EFEFEF" d="M739.081,260.919c-0.121-0.301-0.132-0.605-0.03-0.914
		c0.115,0.213,0.255,0.418,0.329,0.645C739.396,260.701,739.187,260.827,739.081,260.919z"/>
	<path fill-rule="evenodd" clip-rule="evenodd" fill="#EFEFEF" d="M215.29,242.709c0,7.162-0.24,14.335,0.092,21.482
		c0.191,4.118-1.275,4.993-5.137,4.917c-34.233-0.672-67.451-24.193-80.937-57.526c-22.465-55.526,14.206-118.045,73.587-125.456
		c12.372-1.544,12.372-1.544,12.375,10.742c0.004,10.66,0.146,21.323-0.061,31.979c-0.071,3.689,1.029,4.994,4.802,4.894
		c9.154-0.243,18.322,0.012,27.479-0.199c3.468-0.08,4.557,1.003,4.546,4.539c-0.039,12.971,0.089,12.973-12.967,12.968
		c-6.663-0.002-13.327,0.07-19.987-0.055c-2.778-0.053-3.891,0.941-3.822,3.776c0.272,11.192-1.243,9.273,9.147,9.377
		c6.829,0.068,13.66,0.08,20.486-0.062c3.028-0.063,3.985,1.088,4.057,4.106c0.305,12.855,0.395,12.854-12.612,12.854
		c-5.663,0-11.329,0.104-16.988-0.053c-2.978-0.083-4.056,0.933-4.143,4.007c-0.345,12.25-0.44,12.248,11.793,12.226
		c7.329-0.013,14.659,0.053,21.985-0.08c2.938-0.053,4.291,0.89,4.126,4.014c-0.192,3.654-0.221,7.338,0.006,10.988
		c0.193,3.112-0.993,4.015-4.012,3.963c-9.491-0.165-18.992,0.097-28.479-0.167c-4.061-0.113-5.652,0.998-5.463,5.284
		c0.315,7.148,0.086,14.321,0.086,21.483C215.266,242.709,215.278,242.709,215.29,242.709z"/>
	<path fill-rule="evenodd" clip-rule="evenodd" fill="#D7E4EB" d="M300.914,73.081c22.464,17.931,36.906,41.11,44.588,68.612
		c18.263,65.384-17.303,135.884-80.726,160.18c-0.925,0.354-1.893,0.596-2.841,0.889c-0.962-14.093-2.932-28.111-3.114-42.265
		c-0.007-0.545-0.65-1.081-0.998-1.621c17.89-10.264,31.967-24.069,40.783-43.011c15.35-32.983,9.541-72.547-14.832-99.552
		c-0.66-0.731-1.235-1.54-1.849-2.312c1.363-0.573,1.771-1.762,2.216-3.062C288.622,97.83,294.719,85.433,300.914,73.081z"/>
	<path fill-rule="evenodd" clip-rule="evenodd" fill="#EFEFEF" d="M300.914,73.081c-6.195,12.352-12.292,24.749-16.773,37.857
		c-0.445,1.301-0.853,2.49-2.216,3.062c-13.372-13.377-29.071-22.523-47.691-26.493c-5.067-1.08-10.192-1.455-15.314-1.959
		c-2.31-0.227-3.326-1.04-3.287-3.73c0.171-11.812,0.044-23.629,0.01-35.444c-0.007-2.261-0.17-4.293,3.265-4.117
		c30.271,1.553,57.638,10.896,81.398,30.045C300.554,72.505,300.712,72.819,300.914,73.081z"/>
	<path fill-rule="evenodd" clip-rule="evenodd" fill="#EFEFEF" d="M257.823,258.876c0.347,0.54,0.99,1.076,0.998,1.621
		c0.182,14.153,2.151,28.172,3.114,42.266c-13.49,5.136-27.446,7.819-41.877,8.291c-3.356,0.11-4.249-0.995-4.2-4.227
		c0.17-11.153,0.079-22.31,0.057-33.465c-0.004-2.243-0.222-4.31,3.108-4.397C232.719,268.603,245.525,264.684,257.823,258.876z"/>
	<path fill-rule="evenodd" clip-rule="evenodd" fill="#D7E4EB" d="M659.164,178.946c1.977-0.264,4.232,0.866,5.856-1.168
		c1.602,1.968,1.362,4.231,1.218,6.559c-0.157,2.498,1.383,3.416,3.74,3.542c2.533,0.135,2.96-1.181,3.026-3.343
		c0.067-2.222-0.868-4.636,0.877-6.652c2.73,2.123,5.892,0.681,8.831,1.063c0.062,1.487,0.143,2.973,0.179,4.46
		c0.05,1.981-0.294,4.236,2.655,4.389c3.229,0.168,2.596-2.286,2.641-4.166c0.062-2.545,0.016-5.092,0.016-7.638
		c1.701,2.776,2.44,5.706,3.184,8.636c0.484,1.909,1.289,3.43,3.667,3.197c2.08-0.205,2.528-1.635,2.95-3.384
		c0.695-2.878,0.78-5.986,2.968-9.349c0,3.872-0.003,6.845,0,9.817c0.002,2.087,1.12,2.953,3.133,2.93
		c1.973-0.022,2.52-1.218,2.56-2.913c0.047-1.984,0.116-3.967,0.175-5.951c0.953-0.01,1.905-0.019,2.857-0.028
		c0.062,1.98,0.147,3.959,0.175,5.939c0.02,1.4,0.137,2.854,1.909,2.889c4.625,0.09,9.255,0.068,13.881-0.019
		c1.334-0.025,2.054-1.007,2.072-2.331c0.021-1.626-0.897-2.384-2.486-2.394c-1.818-0.012-3.637-0.021-5.455-0.035
		c-1.534-0.012-3.114,0.035-3.009-2.213c0.092-1.951,1.543-1.744,2.856-1.866c2.395-0.223,5.007,0.768,7.1-1.218
		c2.41,2.168,3.737,1.739,4.14-1.583c0.368-3.04-1.097-6.298,1.066-9.123c-0.1,5.961-0.222,11.921-0.285,17.882
		c-0.021,2.03,1.072,2.98,3.122,2.973c2.117-0.007,2.369-1.373,2.369-2.996c-0.002-2.375-0.001-4.75-0.001-7.841
		c3.288,2.818,4.47,6.005,6.521,8.531c1.469,1.809,3.338,2.874,5.668,2.16c2.412-0.739,1.668-2.945,1.7-4.656
		c0.075-3.977,0.026-7.957,0.015-11.935c-0.005-1.814,0.246-3.771-2.18-4.39c0.002-1.535,0.004-3.07,0.006-4.605
		c27.903-0.053,55.809-0.137,83.713-0.147c17.106-0.006,34.214,0.099,51.321,0.154c-0.119,2.666,1.363,4.705,2.668,6.813
		c-1.095,1.799-2.322,3.462-4.558,4.753c-0.08-1.286-0.195-2.084-0.167-2.877c0.081-2.277-0.461-3.838-3.221-3.94
		c-3.104-0.115-2.95,1.871-2.938,3.938c0.023,3.819-0.08,7.642,0.053,11.456c0.074,2.124-0.999,4.954,2.539,5.535
		c3.602,0.59,3.453-1.929,3.703-4.321c0.159-1.526,1.079-3.046,2.654-3.23c1.67-0.195,1.674,1.745,2.319,2.795
		c1.267,2.058,1.79,4.812,4.941,4.995c0.005,1.58,0.009,3.16,0.013,4.74c-29.64-0.002-59.278,0.005-88.917-0.009
		c-76.107-0.037-152.214-0.078-228.322-0.151c-2.299-0.002-4.67,0.447-6.898-0.581c26.012-0.03,52.025-0.067,78.037-0.082
		c2.689-0.001,5.649,0.489,5.069-3.807C655.617,186.852,658.49,183.888,659.164,178.946z M838.255,172.958
		c3.36-1.904,6.085-0.843,8.64-1.275c1.484-0.251,2.523-0.966,2.593-2.521c0.076-1.716-1.049-2.257-2.588-2.252
		c-4.149,0.012-8.3,0.021-12.449,0.004c-1.991-0.008-2.509,1.144-2.497,2.888c0.031,4.98,0.021,9.96,0.009,14.94
		c-0.004,1.676,0.433,3.034,2.406,3.055c4.313,0.046,8.63,0.034,12.944,0c1.561-0.012,2.456-0.825,2.513-2.449
		c0.073-2.128-1.315-2.366-2.961-2.346c-1.825,0.023-3.651-0.016-5.478-0.016c-1.513,0-2.614-0.426-2.532-2.242
		c0.072-1.609,1.165-1.786,2.411-1.797c1.66-0.014,3.32-0.019,4.979-0.065c1.569-0.044,2.501-0.83,2.489-2.454
		c-0.013-1.664-1.026-2.232-2.576-2.357C843.819,173.881,841.329,174.636,838.255,172.958z M828.123,177.518
		c-0.014,0-0.026,0-0.039,0c0-2.663-0.008-5.326,0.003-7.989c0.007-1.904-0.984-2.652-2.817-2.618
		c-1.732,0.032-3.511-0.053-3.486,2.4c0.026,2.732-0.211,4.886-3.939,4.825c-3.523-0.058-2.942-2.336-3.041-4.426
		c-0.1-2.108-1.322-2.78-3.295-2.844c-2.243-0.073-2.877,1.018-2.85,3.041c0.059,4.494-0.009,8.989,0.022,13.483
		c0.015,2.108-0.494,4.538,2.998,4.471c3.243-0.062,3.36-2.183,3.105-4.455c-0.356-3.178,0.619-4.656,4.103-4.336
		c2.979,0.274,2.871,2.166,2.848,4.228c-0.026,2.338-0.45,4.695,3.327,4.607c3.938-0.092,2.941-2.75,3.043-4.895
		C828.191,181.184,828.123,179.349,828.123,177.518z M863.197,188.058c1.282,0.1,3.331,0.042,5.013-1.166
		c1.934-1.39,4.944-3.002,3.105-5.692c-1.597-2.336-4.083-1.908-6.036,0.834c-1.298,1.823-3.835,1.849-5.166-0.021
		c-2.062-2.896-2.194-6.387-0.105-9.298c1.913-2.669,4.169-1.75,6.264,0.348c1.62,1.621,3.858,0.866,4.922-0.38
		c1.436-1.683-0.687-2.913-1.769-3.936c-3.051-2.887-9.109-3.042-13.006-0.508c-3.881,2.524-5.003,6.811-3.514,12.888
		C854.145,186.187,857.661,187.968,863.197,188.058z M795.993,188.031c2.376,0.224,4.991-0.385,6.788-2.608
		c0.979-1.21,3.21-2.753,1.042-4.498c-1.467-1.181-3.582-2.156-5.181,0.264c-1.619,2.452-4,2.935-5.853,0.928
		c-2.513-2.722-2.367-6.233-0.329-9.233c1.624-2.39,3.814-2.35,5.833-0.107c2,2.223,4.665,1.047,5.651-0.344
		c1.05-1.483-1.005-3.26-2.538-4.22c-4.25-2.659-8.602-2.335-12.673,0.322c-3.92,2.557-4.872,7.436-3.106,13.049
		C787.189,186.55,790.737,188.228,795.993,188.031z M763.904,166.916c0,0.007,0,0.013,0,0.02c-2.66,0-5.319-0.038-7.979,0.016
		c-1.403,0.028-2.059,0.885-2.06,2.268c0,1.092,0.4,2.294,1.488,2.241c6.514-0.319,4.575,4.402,4.774,7.825
		c0.097,1.658,0.003,3.325,0.076,4.985c0.103,2.327,1.092,3.708,3.703,3.611c2.563-0.095,2.907-1.658,2.867-3.699
		c-0.049-2.493,0.093-4.992-0.038-7.479c-0.156-2.988,0.14-5.353,4.091-5.004c1.703,0.15,2.217-1.039,2.188-2.611
		c-0.033-1.821-1.131-2.186-2.629-2.175C768.226,166.927,766.065,166.916,763.904,166.916z"/>
	<path fill-rule="evenodd" clip-rule="evenodd" fill="#EFEFEF" d="M891.922,192.779c-0.004-1.581-0.008-3.161-0.013-4.741
		c1.487-0.572,3.292,0.423,4.996-1.155c-2.051-3.366-4.458-6.576-6.07-10.146c-2.228-4.93,4.771-5.58,5.013-9.905
		c-3.179,0.582-6.719-1.271-9.265,2.103c-1.305-2.108-2.787-4.147-2.668-6.813c1.816-0.058,3.634-0.161,5.452-0.166
		c8.985-0.023,9.009-0.015,9.402,9.257c0.239,5.618,0.125,11.215-0.381,16.838C897.987,192.511,895.953,193.768,891.922,192.779z"/>
	<path fill-rule="evenodd" clip-rule="evenodd" fill="#D7E4EB" d="M724.657,263.513c-0.292,1.492-0.48,3.231-2.346,3.272
		c-2.167,0.047-2.521-1.716-2.492-3.452c0.025-1.522,0.286-3.17,2.2-3.229C724.243,260.036,724.343,261.944,724.657,263.513z"/>
	<path fill-rule="evenodd" clip-rule="evenodd" fill="#D7E4EB" d="M886.275,308.884c-2.197-0.256-2.598-1.811-2.573-3.575
		c0.021-1.593,0.492-3.088,2.38-3.187c2.165-0.113,2.777,1.408,2.814,3.255C888.934,307.218,888.345,308.622,886.275,308.884z"/>
	<path fill-rule="evenodd" clip-rule="evenodd" fill="#D7E4EB" d="M677.931,263.605c-0.086,1.872-0.735,3.361-2.902,3.204
		c-1.925-0.139-2.284-1.715-2.302-3.279c-0.02-1.782,0.426-3.513,2.627-3.474C677.529,260.095,677.901,261.81,677.931,263.605z"/>
	<path fill-rule="evenodd" clip-rule="evenodd" fill="#D7E4EB" d="M1019.608,305.31c-0.217,1.728-0.639,3.415-2.729,3.527
		c-2.096,0.113-2.836-1.342-2.899-3.216c-0.063-1.851,0.544-3.385,2.6-3.535C1018.724,301.929,1019.249,303.603,1019.608,305.31z"/>
	<path fill-rule="evenodd" clip-rule="evenodd" fill="#1F89C8" d="M576.766,177.122c0,2.318-0.007,4.636,0.002,6.955
		c0.008,1.949-0.121,3.713-2.779,3.768c-2.533,0.051-3.021-1.379-2.99-3.514c0.066-4.657,0.027-9.316,0.017-13.974
		c-0.004-1.732-0.02-3.691,2.416-3.371c2.339,0.307,5.591-1.735,6.765,2.158c0.811,2.689,1.489,5.417,2.4,8.768
		c1.9-2.571,2.002-5.189,2.558-7.589c0.57-2.458,1.739-3.388,4.42-3.534c4.074-0.223,5.73,0.928,5.326,5.23
		c-0.372,3.958-0.074,7.978-0.071,11.97c0.002,1.876,0.127,3.808-2.613,3.854c-2.869,0.048-3.137-1.856-3.126-4.024
		c0.013-2.486,0.003-4.973-0.841-7.667c-0.493,2.015-0.785,4.107-1.532,6.022c-0.816,2.094,0.049,5.497-3.671,5.628
		c-3.812,0.134-3.062-3.28-3.869-5.378c-0.687-1.789-1.028-3.711-1.523-5.574C577.358,176.94,577.062,177.031,576.766,177.122z"/>
	<path fill-rule="evenodd" clip-rule="evenodd" fill="#1F89C8" d="M706.839,178.974c-0.059,1.984-0.128,3.967-0.175,5.951
		c-0.04,1.695-0.587,2.891-2.56,2.913c-2.013,0.023-3.131-0.843-3.133-2.93c-0.003-2.973,0-5.945,0-9.817
		c-2.188,3.363-2.272,6.471-2.968,9.349c-0.422,1.75-0.87,3.18-2.95,3.384c-2.378,0.233-3.183-1.288-3.667-3.197
		c-0.743-2.93-1.482-5.859-3.184-8.636c0,2.546,0.046,5.093-0.016,7.638c-0.045,1.88,0.589,4.334-2.641,4.166
		c-2.949-0.153-2.605-2.408-2.655-4.389c-0.036-1.487-0.117-2.973-0.179-4.46c0.059-2.157-0.077-4.342,0.229-6.463
		c0.299-2.073-1.688-5.346,2.711-5.595c3.549-0.201,6.632-0.117,7.124,4.526c0.207,1.955,0.911,3.857,1.48,6.15
		c2.179-1.772,2.237-4.301,2.387-6.257c0.393-5.162,3.842-4.499,7.144-4.387c4.257,0.144,2.547,3.449,2.809,5.59
		C706.856,174.643,706.772,176.818,706.839,178.974z"/>
	<path fill-rule="evenodd" clip-rule="evenodd" fill="#1F89C8" d="M556.229,172.861c2.919,1.734,5.234,1.079,7.385,1.198
		c1.733,0.096,3.42,0.006,3.341,2.505c-0.078,2.487-1.885,2.088-3.506,2.423c-2.167,0.449-6.191-1.608-6.162,1.729
		c0.037,4.192,4.35,1.637,6.72,2.246c1.594,0.41,3.945-0.708,4.015,2.288c0.065,2.8-1.978,2.518-3.812,2.603
		c-14.042,0.646-14.045,0.652-14.034-13.379c0.006-8.417-0.76-7.554,7.353-7.568c2.49-0.004,4.98-0.019,7.469-0.004
		c1.382,0.007,2.709,0.101,2.797,1.991c0.09,1.925-0.978,2.603-2.708,2.808C562.47,172.009,559.654,171.087,556.229,172.861z"/>
	<path fill-rule="evenodd" clip-rule="evenodd" fill="#1F89C8" d="M748.875,166.721c2.426,0.619,2.175,2.575,2.18,4.39
		c0.012,3.979,0.061,7.958-0.015,11.935c-0.032,1.71,0.712,3.917-1.7,4.656c-2.33,0.714-4.199-0.351-5.668-2.16
		c-2.052-2.526-3.233-5.713-6.521-8.531c0,3.091-0.001,5.465,0.001,7.841c0,1.623-0.252,2.988-2.369,2.996
		c-2.05,0.007-3.144-0.943-3.122-2.973c0.063-5.961,0.186-11.921,0.285-17.882c3.731-0.714,6.378,0.618,8.188,4.003
		c1.055,1.974,2.496,3.742,3.806,5.665C746.948,173.64,741.309,167.027,748.875,166.721z"/>
	<path fill-rule="evenodd" clip-rule="evenodd" fill="#1F89C8" d="M527.022,172.053c1.92,2.722,4.132,1.85,6.174,1.992
		c1.766,0.122,3.498,0.129,3.41,2.508c-0.086,2.319-1.837,2.398-3.585,2.379c-1.328-0.015-2.655,0.015-3.983,0.016
		c-1.319,0.002-2.263,0.445-2.304,1.949c-0.041,1.499,0.847,2.056,2.189,2.075c1.991,0.028,3.983,0.043,5.974,0.012
		c1.704-0.027,2.968,0.378,2.887,2.444c-0.064,1.644-0.963,2.386-2.537,2.391c-4.314,0.012-8.628,0.012-12.943,0.007
		c-2.009-0.002-2.431-1.271-2.421-2.975c0.026-4.979,0.052-9.958-0.019-14.936c-0.029-2.037,0.634-3.085,2.839-3.038
		c3.981,0.084,7.965,0.043,11.948,0.023c1.573-0.008,2.526,0.541,2.489,2.283c-0.035,1.666-0.99,2.372-2.505,2.468
		C532.1,171.812,529.56,171.922,527.022,172.053z"/>
	<path fill-rule="evenodd" clip-rule="evenodd" fill="#1F89C8" d="M726.739,177.697c-2.093,1.986-4.705,0.995-7.1,1.218
		c-1.313,0.123-2.765-0.084-2.856,1.866c-0.105,2.248,1.475,2.201,3.009,2.213c1.818,0.014,3.637,0.023,5.455,0.035
		c1.589,0.01,2.508,0.768,2.486,2.394c-0.019,1.324-0.738,2.306-2.072,2.331c-4.626,0.087-9.256,0.109-13.881,0.019
		c-1.772-0.035-1.89-1.488-1.909-2.889c-0.027-1.98-0.113-3.959-0.175-5.939c0.025-0.164,0.047-0.328,0.076-0.491
		c0.66-3.694-1.775-9.058,1.13-10.801c3.869-2.32,9.34-0.563,14.118-0.726c1.424-0.048,2.069,0.723,2.107,2.144
		c0.042,1.584-0.56,2.468-2.226,2.639c-2.62,0.27-5.43-0.657-8.647,1.064c2.479,1.913,4.673,1.31,6.623,1.246
		C725.607,173.932,726.982,174.86,726.739,177.697z"/>
	<path fill-rule="evenodd" clip-rule="evenodd" fill="#1F89C8" d="M485.026,173.407c1.983,1.267,4.325,0.515,6.49,0.646
		c1.646,0.1,3.082,0.308,3.1,2.339c0.017,1.912-1.186,2.56-2.947,2.532c-1.665-0.026-3.33,0.012-4.995,0.039
		c-1.157,0.019-1.882,0.557-1.947,1.77c-0.076,1.416,0.597,2.197,2.035,2.222c1.998,0.035,3.996,0.073,5.993,0.046
		c1.7-0.023,3.052,0.385,2.99,2.409c-0.059,1.942-1.387,2.437-3.079,2.432c-3.996-0.012-7.992-0.034-11.987,0.017
		c-2.209,0.028-2.834-1.123-2.809-3.131c0.063-4.994,0.073-9.99-0.007-14.984c-0.036-2.207,0.991-2.903,3.037-2.865
		c3.828,0.072,7.658,0.021,11.487,0.027c1.407,0.002,2.698,0.114,2.744,2.034c0.047,1.946-1.026,2.695-2.767,2.726
		c-2.436,0.042-4.872,0.01-7.309,0.01C485.046,172.252,485.036,172.83,485.026,173.407z"/>
	<path fill-rule="evenodd" clip-rule="evenodd" fill="#1F89C8" d="M659.164,178.946c-0.674,4.942-3.547,7.906-8.273,9.204
		c-8.962-0.324-12.838-3.078-13.24-9.403c-0.435-6.858,2.298-10.997,7.837-11.867c8.009-1.257,11.883,1.323,13.667,9.106
		c0.007,0.328,0.014,0.655,0.021,0.983C659.172,177.627,659.168,178.287,659.164,178.946z M652.702,177.362
		c-0.233-2.963-0.729-6.097-4.384-6.173c-3.774-0.079-4.216,3.128-4.343,6.056c-0.133,3.06,0.541,6.064,4.229,6.119
		C651.898,183.419,652.477,180.344,652.702,177.362z"/>
	<path fill-rule="evenodd" clip-rule="evenodd" fill="#1F89C8" d="M437.852,176.627c-0.005-10.428-0.007-10.394,10.495-9.703
		c4.125,0.271,7.116,1.767,7.377,6.357c0.24,4.209-2.189,7.087-6.928,7.45c-3.042,0.233-4.688,1.008-4.532,4.283
		c0.123,2.565-1.579,2.896-3.637,2.816c-2.167-0.083-2.819-1.288-2.782-3.246C437.895,181.933,437.857,179.28,437.852,176.627z
		 M446.271,171.467c-1.2,0.06-1.976,0.678-2.028,2.077c-0.057,1.521,0.438,2.58,2.176,2.494c1.415-0.07,2.63-0.538,2.644-2.216
		C449.077,172.114,447.679,171.841,446.271,171.467z"/>
	<path fill-rule="evenodd" clip-rule="evenodd" fill="#1F89C8" d="M605.77,166.889c3.297,0.063,6.8-0.417,9.239,2.538
		c3.487,4.221,0.548,10.548-5.445,11.299c-2.84,0.355-4.887,0.716-4.548,4.226c0.208,2.158-1.085,2.863-3.085,2.886
		c-2.317,0.028-3.328-1.029-3.307-3.302c0.032-3.486-0.039-6.973,0-10.458C598.713,165.931,597.641,167.058,605.77,166.889z
		 M609.899,174.076c0.008-1.864-1.287-2.282-2.585-2.515c-1.338-0.24-2.182,0.392-2.276,1.832c-0.096,1.474,0.23,2.65,2.026,2.62
		C608.461,175.988,609.628,175.556,609.899,174.076z"/>
	<path fill-rule="evenodd" clip-rule="evenodd" fill="#1F89C8" d="M673.882,177.883c-1.745,2.016-0.81,4.43-0.877,6.652
		c-0.066,2.162-0.493,3.479-3.026,3.343c-2.357-0.126-3.897-1.044-3.74-3.542c0.145-2.327,0.384-4.59-1.218-6.559
		c-1.998-3.367-3.995-6.733-6.021-10.146c5.967-2.799,7.989,1.609,10.391,5.801c2.813-3.465,4.306-8.652,10.334-5.995
		C678.741,171.376,675.372,174.138,673.882,177.883z"/>
	<path fill-rule="evenodd" clip-rule="evenodd" fill="#1F89C8" d="M507.736,166.906c2.151-0.003,4.304-0.024,6.455,0.005
		c1.311,0.018,2.731-0.118,2.896,1.82c0.155,1.821-0.59,3.042-2.433,2.932c-3.619-0.216-3.995,1.876-3.86,4.706
		c0.134,2.807-0.011,5.626,0.037,8.44c0.035,2.052-0.831,3.073-2.945,3.028c-1.948-0.042-3.2-0.813-3.238-2.893
		c-0.053-2.979-0.126-5.962-0.024-8.937c0.089-2.597-0.113-4.682-3.585-4.33c-1.915,0.194-3.276-0.553-3.089-2.798
		c0.183-2.184,1.863-1.945,3.33-1.963C503.432,166.888,505.584,166.908,507.736,166.906z"/>
	<path fill-rule="evenodd" clip-rule="evenodd" fill="#1F89C8" d="M458.964,176.938c-0.006-2.331,0.058-4.664-0.025-6.992
		c-0.072-2.024,0.575-3.076,2.814-3.094c2.305-0.019,3.429,0.841,3.364,3.19c-0.041,1.497,0.016,2.997,0.021,4.495
		c0.019,7.33,0.015,7.354,7.272,8.205c1.404,0.165,2.669,0.222,2.694,2.112c0.024,1.798-0.695,2.902-2.568,2.927
		c-3.662,0.049-7.324,0.037-10.986,0.034c-1.916-0.001-2.611-1.093-2.588-2.886C458.996,182.266,458.97,179.602,458.964,176.938z"/>
	<path fill-rule="evenodd" clip-rule="evenodd" fill="#1F89C8" d="M619.78,176.962c-0.003-2.321,0.038-4.642-0.016-6.961
		c-0.044-1.905,0.352-3.207,2.703-3.137c2.178,0.064,3.507,0.765,3.457,3.158c-0.028,1.326,0.017,2.652,0.02,3.978
		c0.02,7.598,0.013,7.639,7.544,8.735c1.524,0.222,2.502,0.577,2.457,2.344c-0.04,1.568-0.67,2.632-2.278,2.667
		c-3.975,0.086-7.954,0.105-11.929,0.032c-1.796-0.033-1.953-1.458-1.954-2.859C619.783,182.266,619.784,179.614,619.78,176.962z"/>
	<path fill-rule="evenodd" clip-rule="evenodd" fill="#D7E4EB" d="M410.703,184.985c0.013,0.329,0.025,0.658,0.038,0.987
		c-0.111-0.228-0.25-0.447-0.314-0.688C410.409,185.214,410.605,185.086,410.703,184.985z"/>
	<path fill-rule="evenodd" clip-rule="evenodd" fill="#D7E4EB" d="M659.176,176.969c-0.007-0.328-0.014-0.656-0.021-0.983
		c0.104,0.228,0.238,0.449,0.295,0.688C659.468,176.746,659.273,176.869,659.176,176.969z"/>
	<path fill-rule="evenodd" clip-rule="evenodd" fill="#D7E4EB" d="M400.912,178.386c0.115,1.956-0.645,4.762-4.298,4.923
		c-3.612,0.159-4.218-2.942-4.235-5.604c-0.018-2.793,0.318-6.238,4.025-6.419C400.074,171.106,400.835,174.096,400.912,178.386z"/>
	<path fill-rule="evenodd" clip-rule="evenodd" fill="#1F89C8" d="M838.255,172.958c3.074,1.677,5.564,0.923,7.902,1.113
		c1.55,0.125,2.563,0.693,2.576,2.357c0.012,1.624-0.92,2.409-2.489,2.454c-1.658,0.046-3.318,0.051-4.979,0.065
		c-1.246,0.011-2.339,0.188-2.411,1.797c-0.082,1.815,1.02,2.242,2.532,2.242c1.826,0,3.652,0.039,5.478,0.016
		c1.646-0.021,3.034,0.218,2.961,2.346c-0.057,1.624-0.952,2.438-2.513,2.449c-4.314,0.034-8.631,0.046-12.944,0
		c-1.974-0.021-2.41-1.379-2.406-3.055c0.013-4.98,0.022-9.96-0.009-14.94c-0.012-1.744,0.506-2.896,2.497-2.888
		c4.149,0.017,8.3,0.008,12.449-0.004c1.539-0.004,2.664,0.536,2.588,2.252c-0.069,1.555-1.108,2.271-2.593,2.521
		C844.34,172.116,841.615,171.055,838.255,172.958z"/>
	<path fill-rule="evenodd" clip-rule="evenodd" fill="#1F89C8" d="M886.583,168.936c2.546-3.373,6.086-1.521,9.265-2.103
		c-0.241,4.325-7.24,4.975-5.013,9.905c1.612,3.57,4.02,6.78,6.07,10.146c-1.704,1.578-3.509,0.583-4.996,1.155
		c-3.151-0.182-3.675-2.936-4.941-4.994c-0.646-1.05-0.649-2.99-2.319-2.795c-1.575,0.184-2.495,1.704-2.654,3.23
		c-0.25,2.393-0.102,4.912-3.703,4.321c-3.538-0.581-2.465-3.411-2.539-5.535c-0.133-3.814-0.029-7.637-0.053-11.456
		c-0.012-2.067-0.166-4.053,2.938-3.938c2.76,0.102,3.302,1.664,3.221,3.94c-0.028,0.793,0.087,1.591,0.167,2.877
		C884.261,172.397,885.488,170.735,886.583,168.936z"/>
	<path fill-rule="evenodd" clip-rule="evenodd" fill="#1F89C8" d="M828.123,177.518c0,1.832,0.068,3.666-0.019,5.493
		c-0.102,2.145,0.895,4.803-3.043,4.895c-3.777,0.088-3.354-2.269-3.327-4.607c0.023-2.062,0.132-3.954-2.848-4.228
		c-3.483-0.32-4.459,1.158-4.103,4.336c0.255,2.272,0.138,4.393-3.105,4.455c-3.492,0.067-2.983-2.362-2.998-4.471
		c-0.031-4.495,0.036-8.99-0.022-13.483c-0.027-2.023,0.606-3.114,2.85-3.041c1.973,0.064,3.195,0.736,3.295,2.844
		c0.099,2.089-0.482,4.368,3.041,4.426c3.729,0.061,3.966-2.093,3.939-4.825c-0.024-2.454,1.754-2.369,3.486-2.4
		c1.833-0.034,2.824,0.714,2.817,2.618c-0.011,2.663-0.003,5.326-0.003,7.989C828.097,177.518,828.109,177.518,828.123,177.518z"/>
	<path fill-rule="evenodd" clip-rule="evenodd" fill="#1F89C8" d="M863.197,188.058c-5.536-0.09-9.053-1.872-10.292-6.932
		c-1.489-6.077-0.367-10.364,3.514-12.888c3.896-2.534,9.955-2.379,13.006,0.508c1.082,1.023,3.204,2.253,1.769,3.936
		c-1.063,1.246-3.302,2-4.922,0.38c-2.095-2.098-4.351-3.017-6.264-0.348c-2.089,2.912-1.956,6.402,0.105,9.298
		c1.331,1.87,3.868,1.844,5.166,0.021c1.953-2.742,4.439-3.17,6.036-0.834c1.839,2.69-1.172,4.302-3.105,5.692
		C866.528,188.101,864.479,188.158,863.197,188.058z"/>
	<path fill-rule="evenodd" clip-rule="evenodd" fill="#1F89C8" d="M795.993,188.031c-5.256,0.197-8.804-1.481-10.365-6.446
		c-1.766-5.613-0.813-10.492,3.106-13.049c4.071-2.657,8.423-2.981,12.673-0.322c1.533,0.96,3.588,2.737,2.538,4.22
		c-0.986,1.391-3.651,2.566-5.651,0.344c-2.019-2.242-4.209-2.283-5.833,0.107c-2.038,3-2.184,6.511,0.329,9.233
		c1.853,2.007,4.233,1.524,5.853-0.928c1.599-2.419,3.714-1.444,5.181-0.264c2.168,1.745-0.063,3.287-1.042,4.498
		C800.984,187.646,798.369,188.255,795.993,188.031z"/>
	<path fill-rule="evenodd" clip-rule="evenodd" fill="#1F89C8" d="M763.904,166.916c2.161,0,4.321,0.011,6.483-0.003
		c1.498-0.011,2.596,0.354,2.629,2.175c0.028,1.572-0.485,2.761-2.188,2.611c-3.951-0.349-4.247,2.016-4.091,5.004
		c0.131,2.487-0.011,4.986,0.038,7.479c0.04,2.041-0.304,3.604-2.867,3.699c-2.611,0.098-3.601-1.284-3.703-3.611
		c-0.073-1.66,0.021-3.327-0.076-4.985c-0.199-3.423,1.739-8.145-4.774-7.825c-1.088,0.053-1.488-1.149-1.488-2.241
		c0.001-1.383,0.656-2.24,2.06-2.268c2.659-0.054,5.318-0.016,7.979-0.016C763.904,166.929,763.904,166.923,763.904,166.916z"/>
	<path fill-rule="evenodd" clip-rule="evenodd" fill="#D7E4EB" d="M652.702,177.362c-0.226,2.981-0.804,6.057-4.498,6.002
		c-3.688-0.055-4.361-3.059-4.229-6.119c0.127-2.928,0.568-6.134,4.343-6.056C651.974,171.265,652.469,174.399,652.702,177.362z"/>
	<path fill-rule="evenodd" clip-rule="evenodd" fill="#D7E4EB" d="M446.271,171.467c1.408,0.374,2.805,0.647,2.791,2.355
		c-0.014,1.678-1.229,2.146-2.644,2.216c-1.738,0.085-2.233-0.973-2.176-2.494C444.295,172.145,445.071,171.527,446.271,171.467z"/>
	<path fill-rule="evenodd" clip-rule="evenodd" fill="#D7E4EB" d="M609.899,174.076c-0.271,1.48-1.438,1.913-2.835,1.937
		c-1.796,0.031-2.123-1.146-2.026-2.62c0.094-1.44,0.938-2.071,2.276-1.832C608.612,171.794,609.907,172.212,609.899,174.076z"/>
</g>
<rect x="616.314" y="251.411" fill="none" width="535.907" height="34"/>
<text transform="matrix(1 0 0 1 616.3145 271.459)" display="none" fill="#0585C7" font-family="'Arial-Black'" font-size="28">A complete understanding</text>
<rect x="877" y="293.411" fill="none" width="344" height="44.589"/>
<text transform="matrix(1 0 0 1 877 313.459)" display="none" fill="#0585C7" font-family="'Arial-Black'" font-size="28">of who you are hiring</text>
<polyline fill-rule="evenodd" clip-rule="evenodd" fill="#D7E4EB" points="899.813,253.5 899.891,262.974 899.891,267.667 
	898.391,280.42 "/>
</svg>
